<mxfile host="drawio-plugin" modified="2021-10-04T08:31:51.685Z" agent="5.0 (X11; Linux x86_64) AppleWebKit/537.36 (KHTML, like Gecko) Chrome/89.0.4389.114 Safari/537.36" etag="EpacE0zOYBsjy_7lpY2d" version="14.7.4" type="embed" pages="3"><diagram id="C5RBs43oDa-KdzZeNtuy" name="Basic Entities"><mxGraphModel dx="1093" dy="441" grid="1" gridSize="10" guides="1" tooltips="1" connect="1" arrows="1" fold="1" page="1" pageScale="1" pageWidth="827" pageHeight="1169" math="0" shadow="0"><root><mxCell id="WIyWlLk6GJQsqaUBKTNV-0"/><mxCell id="WIyWlLk6GJQsqaUBKTNV-1" parent="WIyWlLk6GJQsqaUBKTNV-0"/><mxCell id="HCXE9kBGhOHFtl1S7ZoC-13" style="edgeStyle=orthogonalEdgeStyle;rounded=0;orthogonalLoop=1;jettySize=auto;html=1;entryX=0.5;entryY=0;entryDx=0;entryDy=0;exitX=0;exitY=0.5;exitDx=0;exitDy=0;" parent="WIyWlLk6GJQsqaUBKTNV-1" source="UKMm4N5ZRRHJhfM1Z7Ss-1" target="HCXE9kBGhOHFtl1S7ZoC-7" edge="1"><mxGeometry relative="1" as="geometry"/></mxCell><mxCell id="UKMm4N5ZRRHJhfM1Z7Ss-0" value="Основные сущности" style="swimlane;fontStyle=0;align=center;verticalAlign=top;childLayout=stackLayout;horizontal=1;startSize=30;horizontalStack=0;resizeParent=1;resizeLast=0;collapsible=1;marginBottom=0;rounded=0;shadow=0;strokeWidth=1;perimeterSpacing=0;" parent="WIyWlLk6GJQsqaUBKTNV-1" vertex="1"><mxGeometry x="389" y="300" width="130" height="134" as="geometry"><mxRectangle x="290" y="80" width="160" height="26" as="alternateBounds"/></mxGeometry></mxCell><mxCell id="UKMm4N5ZRRHJhfM1Z7Ss-1" value="Счёт" style="text;align=left;verticalAlign=top;spacingLeft=4;spacingRight=4;overflow=hidden;rotatable=0;points=[[0,0.5],[1,0.5]];portConstraint=eastwest;strokeWidth=1;perimeterSpacing=3;" parent="UKMm4N5ZRRHJhfM1Z7Ss-0" vertex="1"><mxGeometry y="30" width="130" height="26" as="geometry"/></mxCell><mxCell id="UKMm4N5ZRRHJhfM1Z7Ss-2" value="Клиент" style="text;align=left;verticalAlign=top;spacingLeft=4;spacingRight=4;overflow=hidden;rotatable=0;points=[[0,0.5],[1,0.5]];portConstraint=eastwest;rounded=0;shadow=0;html=0;" parent="UKMm4N5ZRRHJhfM1Z7Ss-0" vertex="1"><mxGeometry y="56" width="130" height="26" as="geometry"/></mxCell><mxCell id="UKMm4N5ZRRHJhfM1Z7Ss-3" value="Банк" style="text;align=left;verticalAlign=top;spacingLeft=4;spacingRight=4;overflow=hidden;rotatable=0;points=[[0,0.5],[1,0.5]];portConstraint=eastwest;rounded=0;shadow=0;html=0;strokeWidth=1;perimeterSpacing=0;" parent="UKMm4N5ZRRHJhfM1Z7Ss-0" vertex="1"><mxGeometry y="82" width="130" height="26" as="geometry"/></mxCell><mxCell id="hWmLFaUG1XP1lwcE0nZt-2" value="Транзакция" style="text;align=left;verticalAlign=top;spacingLeft=4;spacingRight=4;overflow=hidden;rotatable=0;points=[[0,0.5],[1,0.5]];portConstraint=eastwest;rounded=0;shadow=0;html=0;strokeWidth=1;perimeterSpacing=0;" vertex="1" parent="UKMm4N5ZRRHJhfM1Z7Ss-0"><mxGeometry y="108" width="130" height="26" as="geometry"/></mxCell><mxCell id="HCXE9kBGhOHFtl1S7ZoC-7" value="Счёт" style="swimlane;fontStyle=0;align=center;verticalAlign=top;childLayout=stackLayout;horizontal=1;startSize=30;horizontalStack=0;resizeParent=1;resizeLast=0;collapsible=1;marginBottom=0;rounded=0;shadow=0;strokeWidth=1;" parent="WIyWlLk6GJQsqaUBKTNV-1" vertex="1"><mxGeometry x="70" y="60" width="220" height="212" as="geometry"><mxRectangle x="550" y="140" width="160" height="26" as="alternateBounds"/></mxGeometry></mxCell><mxCell id="HCXE9kBGhOHFtl1S7ZoC-9" value="ID-счёта" style="text;align=left;verticalAlign=top;spacingLeft=4;spacingRight=4;overflow=hidden;rotatable=0;points=[[0,0.5],[1,0.5]];portConstraint=eastwest;rounded=0;shadow=0;html=0;" parent="HCXE9kBGhOHFtl1S7ZoC-7" vertex="1"><mxGeometry y="30" width="220" height="26" as="geometry"/></mxCell><mxCell id="hWmLFaUG1XP1lwcE0nZt-0" value="Текущий счёт" style="text;align=left;verticalAlign=top;spacingLeft=4;spacingRight=4;overflow=hidden;rotatable=0;points=[[0,0.5],[1,0.5]];portConstraint=eastwest;rounded=0;shadow=0;html=0;" vertex="1" parent="HCXE9kBGhOHFtl1S7ZoC-7"><mxGeometry y="56" width="220" height="26" as="geometry"/></mxCell><mxCell id="HCXE9kBGhOHFtl1S7ZoC-19" value="Процент на остаток (дебит+депозит)" style="text;align=left;verticalAlign=top;spacingLeft=4;spacingRight=4;overflow=hidden;rotatable=0;points=[[0,0.5],[1,0.5]];portConstraint=eastwest;rounded=0;shadow=0;html=0;" parent="HCXE9kBGhOHFtl1S7ZoC-7" vertex="1"><mxGeometry y="82" width="220" height="26" as="geometry"/></mxCell><mxCell id="HCXE9kBGhOHFtl1S7ZoC-20" value="Комиссия (кредит)" style="text;align=left;verticalAlign=top;spacingLeft=4;spacingRight=4;overflow=hidden;rotatable=0;points=[[0,0.5],[1,0.5]];portConstraint=eastwest;rounded=0;shadow=0;html=0;" parent="HCXE9kBGhOHFtl1S7ZoC-7" vertex="1"><mxGeometry y="108" width="220" height="26" as="geometry"/></mxCell><mxCell id="HCXE9kBGhOHFtl1S7ZoC-65" value="Срок (депозит)" style="text;align=left;verticalAlign=top;spacingLeft=4;spacingRight=4;overflow=hidden;rotatable=0;points=[[0,0.5],[1,0.5]];portConstraint=eastwest;rounded=0;shadow=0;html=0;" parent="HCXE9kBGhOHFtl1S7ZoC-7" vertex="1"><mxGeometry y="134" width="220" height="26" as="geometry"/></mxCell><mxCell id="HCXE9kBGhOHFtl1S7ZoC-66" value="Накопленная сумма (дибит+депозит)" style="text;align=left;verticalAlign=top;spacingLeft=4;spacingRight=4;overflow=hidden;rotatable=0;points=[[0,0.5],[1,0.5]];portConstraint=eastwest;rounded=0;shadow=0;html=0;" parent="HCXE9kBGhOHFtl1S7ZoC-7" vertex="1"><mxGeometry y="160" width="220" height="26" as="geometry"/></mxCell><mxCell id="b91BShjHoIf8Z2FtRJOV-2" value="Кредитный лимит (кредит)" style="text;align=left;verticalAlign=top;spacingLeft=4;spacingRight=4;overflow=hidden;rotatable=0;points=[[0,0.5],[1,0.5]];portConstraint=eastwest;rounded=0;shadow=0;html=0;" vertex="1" parent="HCXE9kBGhOHFtl1S7ZoC-7"><mxGeometry y="186" width="220" height="26" as="geometry"/></mxCell><mxCell id="HCXE9kBGhOHFtl1S7ZoC-16" value="Клиент" style="swimlane;fontStyle=0;align=center;verticalAlign=top;childLayout=stackLayout;horizontal=1;startSize=30;horizontalStack=0;resizeParent=1;resizeLast=0;collapsible=1;marginBottom=0;rounded=0;shadow=0;strokeWidth=1;" parent="WIyWlLk6GJQsqaUBKTNV-1" vertex="1"><mxGeometry x="610" y="60" width="160" height="212" as="geometry"><mxRectangle x="550" y="140" width="160" height="26" as="alternateBounds"/></mxGeometry></mxCell><mxCell id="08pgtbHFFoBmV6gueWKH-0" value="ID-клиента" style="text;align=left;verticalAlign=top;spacingLeft=4;spacingRight=4;overflow=hidden;rotatable=0;points=[[0,0.5],[1,0.5]];portConstraint=eastwest;rounded=0;shadow=0;html=0;" vertex="1" parent="HCXE9kBGhOHFtl1S7ZoC-16"><mxGeometry y="30" width="160" height="26" as="geometry"/></mxCell><mxCell id="HCXE9kBGhOHFtl1S7ZoC-17" value="Счета клиента" style="text;align=left;verticalAlign=top;spacingLeft=4;spacingRight=4;overflow=hidden;rotatable=0;points=[[0,0.5],[1,0.5]];portConstraint=eastwest;rounded=0;shadow=0;html=0;" parent="HCXE9kBGhOHFtl1S7ZoC-16" vertex="1"><mxGeometry y="56" width="160" height="26" as="geometry"/></mxCell><mxCell id="HCXE9kBGhOHFtl1S7ZoC-37" value="Имя" style="text;align=left;verticalAlign=top;spacingLeft=4;spacingRight=4;overflow=hidden;rotatable=0;points=[[0,0.5],[1,0.5]];portConstraint=eastwest;rounded=0;shadow=0;html=0;" parent="HCXE9kBGhOHFtl1S7ZoC-16" vertex="1"><mxGeometry y="82" width="160" height="26" as="geometry"/></mxCell><mxCell id="HCXE9kBGhOHFtl1S7ZoC-38" value="Фамилия" style="text;align=left;verticalAlign=top;spacingLeft=4;spacingRight=4;overflow=hidden;rotatable=0;points=[[0,0.5],[1,0.5]];portConstraint=eastwest;rounded=0;shadow=0;html=0;" parent="HCXE9kBGhOHFtl1S7ZoC-16" vertex="1"><mxGeometry y="108" width="160" height="26" as="geometry"/></mxCell><mxCell id="HCXE9kBGhOHFtl1S7ZoC-39" value="Адрес" style="text;align=left;verticalAlign=top;spacingLeft=4;spacingRight=4;overflow=hidden;rotatable=0;points=[[0,0.5],[1,0.5]];portConstraint=eastwest;rounded=0;shadow=0;html=0;" parent="HCXE9kBGhOHFtl1S7ZoC-16" vertex="1"><mxGeometry y="134" width="160" height="26" as="geometry"/></mxCell><mxCell id="HCXE9kBGhOHFtl1S7ZoC-40" value="Паспортные данные" style="text;align=left;verticalAlign=top;spacingLeft=4;spacingRight=4;overflow=hidden;rotatable=0;points=[[0,0.5],[1,0.5]];portConstraint=eastwest;rounded=0;shadow=0;html=0;" parent="HCXE9kBGhOHFtl1S7ZoC-16" vertex="1"><mxGeometry y="160" width="160" height="26" as="geometry"/></mxCell><mxCell id="HCXE9kBGhOHFtl1S7ZoC-67" value="VerifyFlag" style="text;align=left;verticalAlign=top;spacingLeft=4;spacingRight=4;overflow=hidden;rotatable=0;points=[[0,0.5],[1,0.5]];portConstraint=eastwest;rounded=0;shadow=0;html=0;" parent="HCXE9kBGhOHFtl1S7ZoC-16" vertex="1"><mxGeometry y="186" width="160" height="26" as="geometry"/></mxCell><mxCell id="HCXE9kBGhOHFtl1S7ZoC-23" style="edgeStyle=orthogonalEdgeStyle;sketch=0;orthogonalLoop=1;jettySize=auto;html=1;entryX=0.5;entryY=0;entryDx=0;entryDy=0;rounded=0;" parent="WIyWlLk6GJQsqaUBKTNV-1" source="UKMm4N5ZRRHJhfM1Z7Ss-2" target="HCXE9kBGhOHFtl1S7ZoC-16" edge="1"><mxGeometry relative="1" as="geometry"/></mxCell><mxCell id="HCXE9kBGhOHFtl1S7ZoC-30" value="Дебитовый" style="rounded=1;whiteSpace=wrap;html=1;sketch=0;" parent="WIyWlLk6GJQsqaUBKTNV-1" vertex="1"><mxGeometry x="40" y="300" width="90" height="40" as="geometry"/></mxCell><mxCell id="HCXE9kBGhOHFtl1S7ZoC-31" value="Депозит" style="rounded=1;whiteSpace=wrap;html=1;sketch=0;" parent="WIyWlLk6GJQsqaUBKTNV-1" vertex="1"><mxGeometry x="130" y="350" width="90" height="40" as="geometry"/></mxCell><mxCell id="HCXE9kBGhOHFtl1S7ZoC-32" value="Кредитный" style="rounded=1;whiteSpace=wrap;html=1;sketch=0;" parent="WIyWlLk6GJQsqaUBKTNV-1" vertex="1"><mxGeometry x="230" y="320" width="90" height="40" as="geometry"/></mxCell><mxCell id="HCXE9kBGhOHFtl1S7ZoC-34" value="" style="endArrow=block;dashed=1;endFill=0;endSize=12;html=1;exitX=0.5;exitY=0;exitDx=0;exitDy=0;entryX=0.25;entryY=1;entryDx=0;entryDy=0;" parent="WIyWlLk6GJQsqaUBKTNV-1" source="HCXE9kBGhOHFtl1S7ZoC-30" target="HCXE9kBGhOHFtl1S7ZoC-7" edge="1"><mxGeometry width="160" relative="1" as="geometry"><mxPoint x="110" y="220" as="sourcePoint"/><mxPoint x="270" y="220" as="targetPoint"/></mxGeometry></mxCell><mxCell id="HCXE9kBGhOHFtl1S7ZoC-35" value="" style="endArrow=block;dashed=1;endFill=0;endSize=12;html=1;exitX=0.5;exitY=0;exitDx=0;exitDy=0;entryX=0.486;entryY=1.231;entryDx=0;entryDy=0;entryPerimeter=0;" parent="WIyWlLk6GJQsqaUBKTNV-1" source="HCXE9kBGhOHFtl1S7ZoC-31" edge="1" target="b91BShjHoIf8Z2FtRJOV-2"><mxGeometry width="160" relative="1" as="geometry"><mxPoint x="152.17000000000002" y="283.37" as="sourcePoint"/><mxPoint x="175" y="250" as="targetPoint"/></mxGeometry></mxCell><mxCell id="HCXE9kBGhOHFtl1S7ZoC-36" value="" style="endArrow=block;dashed=1;endFill=0;endSize=12;html=1;exitX=0.5;exitY=0;exitDx=0;exitDy=0;entryX=0.75;entryY=1;entryDx=0;entryDy=0;" parent="WIyWlLk6GJQsqaUBKTNV-1" source="HCXE9kBGhOHFtl1S7ZoC-32" target="HCXE9kBGhOHFtl1S7ZoC-7" edge="1"><mxGeometry width="160" relative="1" as="geometry"><mxPoint x="250" y="250" as="sourcePoint"/><mxPoint x="360" y="290" as="targetPoint"/></mxGeometry></mxCell><mxCell id="HCXE9kBGhOHFtl1S7ZoC-42" value="Банк" style="swimlane;fontStyle=0;align=center;verticalAlign=top;childLayout=stackLayout;horizontal=1;startSize=30;horizontalStack=0;resizeParent=1;resizeLast=0;collapsible=1;marginBottom=0;rounded=0;shadow=0;strokeWidth=1;" parent="WIyWlLk6GJQsqaUBKTNV-1" vertex="1"><mxGeometry x="60" y="440" width="320" height="264" as="geometry"><mxRectangle x="550" y="140" width="160" height="26" as="alternateBounds"/></mxGeometry></mxCell><mxCell id="HCXE9kBGhOHFtl1S7ZoC-43" value="Дебитовый процент" style="text;align=left;verticalAlign=top;spacingLeft=4;spacingRight=4;overflow=hidden;rotatable=0;points=[[0,0.5],[1,0.5]];portConstraint=eastwest;rounded=0;shadow=0;html=0;" parent="HCXE9kBGhOHFtl1S7ZoC-42" vertex="1"><mxGeometry y="30" width="320" height="26" as="geometry"/></mxCell><mxCell id="HCXE9kBGhOHFtl1S7ZoC-49" value="Таблица соответствия счёт-процент (депозит)" style="text;align=left;verticalAlign=top;spacingLeft=4;spacingRight=4;overflow=hidden;rotatable=0;points=[[0,0.5],[1,0.5]];portConstraint=eastwest;rounded=0;shadow=0;html=0;" parent="HCXE9kBGhOHFtl1S7ZoC-42" vertex="1"><mxGeometry y="56" width="320" height="26" as="geometry"/></mxCell><mxCell id="7IlmsY4p4l28TthXqSCU-0" value="Комиссия для кредита" style="text;align=left;verticalAlign=top;spacingLeft=4;spacingRight=4;overflow=hidden;rotatable=0;points=[[0,0.5],[1,0.5]];portConstraint=eastwest;rounded=0;shadow=0;html=0;" vertex="1" parent="HCXE9kBGhOHFtl1S7ZoC-42"><mxGeometry y="82" width="320" height="26" as="geometry"/></mxCell><mxCell id="HCXE9kBGhOHFtl1S7ZoC-48" value="Кредитный лимит" style="text;align=left;verticalAlign=top;spacingLeft=4;spacingRight=4;overflow=hidden;rotatable=0;points=[[0,0.5],[1,0.5]];portConstraint=eastwest;rounded=0;shadow=0;html=0;" parent="HCXE9kBGhOHFtl1S7ZoC-42" vertex="1"><mxGeometry y="108" width="320" height="26" as="geometry"/></mxCell><mxCell id="hWmLFaUG1XP1lwcE0nZt-12" value="Денежный лимит для сомнительного пользователя" style="text;align=left;verticalAlign=top;spacingLeft=4;spacingRight=4;overflow=hidden;rotatable=0;points=[[0,0.5],[1,0.5]];portConstraint=eastwest;rounded=0;shadow=0;html=0;" vertex="1" parent="HCXE9kBGhOHFtl1S7ZoC-42"><mxGeometry y="134" width="320" height="26" as="geometry"/></mxCell><mxCell id="hWmLFaUG1XP1lwcE0nZt-13" value="Broker (создаёт пользовательские транзакции)" style="text;align=left;verticalAlign=top;spacingLeft=4;spacingRight=4;overflow=hidden;rotatable=0;points=[[0,0.5],[1,0.5]];portConstraint=eastwest;rounded=0;shadow=0;html=0;" vertex="1" parent="HCXE9kBGhOHFtl1S7ZoC-42"><mxGeometry y="160" width="320" height="26" as="geometry"/></mxCell><mxCell id="5Gp8tMYAMq6d_29_uBF4-0" value="Predictor (механизм для построения прогнозов)" style="text;align=left;verticalAlign=top;spacingLeft=4;spacingRight=4;overflow=hidden;rotatable=0;points=[[0,0.5],[1,0.5]];portConstraint=eastwest;rounded=0;shadow=0;html=0;" vertex="1" parent="HCXE9kBGhOHFtl1S7ZoC-42"><mxGeometry y="186" width="320" height="26" as="geometry"/></mxCell><mxCell id="hWmLFaUG1XP1lwcE0nZt-1" value="Счета открытые в этом банке" style="text;align=left;verticalAlign=top;spacingLeft=4;spacingRight=4;overflow=hidden;rotatable=0;points=[[0,0.5],[1,0.5]];portConstraint=eastwest;rounded=0;shadow=0;html=0;" vertex="1" parent="HCXE9kBGhOHFtl1S7ZoC-42"><mxGeometry y="212" width="320" height="26" as="geometry"/></mxCell><mxCell id="hWmLFaUG1XP1lwcE0nZt-10" value="Лог последних произведённых транзакций" style="text;align=left;verticalAlign=top;spacingLeft=4;spacingRight=4;overflow=hidden;rotatable=0;points=[[0,0.5],[1,0.5]];portConstraint=eastwest;rounded=0;shadow=0;html=0;" vertex="1" parent="HCXE9kBGhOHFtl1S7ZoC-42"><mxGeometry y="238" width="320" height="26" as="geometry"/></mxCell><mxCell id="HCXE9kBGhOHFtl1S7ZoC-50" style="edgeStyle=orthogonalEdgeStyle;rounded=0;sketch=0;orthogonalLoop=1;jettySize=auto;html=1;" parent="WIyWlLk6GJQsqaUBKTNV-1" source="UKMm4N5ZRRHJhfM1Z7Ss-3" target="HCXE9kBGhOHFtl1S7ZoC-42" edge="1"><mxGeometry relative="1" as="geometry"><Array as="points"><mxPoint x="215" y="395"/></Array></mxGeometry></mxCell><mxCell id="v_YpdzoCGbNTfHYvGENf-0" value="Адрес" style="swimlane;fontStyle=0;align=center;verticalAlign=top;childLayout=stackLayout;horizontal=1;startSize=30;horizontalStack=0;resizeParent=1;resizeLast=0;collapsible=1;marginBottom=0;rounded=0;shadow=0;strokeWidth=1;" vertex="1" parent="WIyWlLk6GJQsqaUBKTNV-1"><mxGeometry x="640" y="370" width="90" height="140" as="geometry"><mxRectangle x="550" y="140" width="160" height="26" as="alternateBounds"/></mxGeometry></mxCell><mxCell id="v_YpdzoCGbNTfHYvGENf-1" value="Город" style="text;align=left;verticalAlign=top;spacingLeft=4;spacingRight=4;overflow=hidden;rotatable=0;points=[[0,0.5],[1,0.5]];portConstraint=eastwest;rounded=0;shadow=0;html=0;" vertex="1" parent="v_YpdzoCGbNTfHYvGENf-0"><mxGeometry y="30" width="90" height="26" as="geometry"/></mxCell><mxCell id="v_YpdzoCGbNTfHYvGENf-2" value="Улица" style="text;align=left;verticalAlign=top;spacingLeft=4;spacingRight=4;overflow=hidden;rotatable=0;points=[[0,0.5],[1,0.5]];portConstraint=eastwest;rounded=0;shadow=0;html=0;" vertex="1" parent="v_YpdzoCGbNTfHYvGENf-0"><mxGeometry y="56" width="90" height="26" as="geometry"/></mxCell><mxCell id="v_YpdzoCGbNTfHYvGENf-3" value="Дом" style="text;align=left;verticalAlign=top;spacingLeft=4;spacingRight=4;overflow=hidden;rotatable=0;points=[[0,0.5],[1,0.5]];portConstraint=eastwest;rounded=0;shadow=0;html=0;" vertex="1" parent="v_YpdzoCGbNTfHYvGENf-0"><mxGeometry y="82" width="90" height="26" as="geometry"/></mxCell><mxCell id="v_YpdzoCGbNTfHYvGENf-4" value="Квартира" style="text;align=left;verticalAlign=top;spacingLeft=4;spacingRight=4;overflow=hidden;rotatable=0;points=[[0,0.5],[1,0.5]];portConstraint=eastwest;rounded=0;shadow=0;html=0;" vertex="1" parent="v_YpdzoCGbNTfHYvGENf-0"><mxGeometry y="108" width="90" height="26" as="geometry"/></mxCell><mxCell id="v_YpdzoCGbNTfHYvGENf-7" style="edgeStyle=orthogonalEdgeStyle;rounded=0;orthogonalLoop=1;jettySize=auto;html=1;entryX=0.5;entryY=0;entryDx=0;entryDy=0;fontSize=13;fontColor=#000000;" edge="1" parent="WIyWlLk6GJQsqaUBKTNV-1" source="HCXE9kBGhOHFtl1S7ZoC-39" target="v_YpdzoCGbNTfHYvGENf-0"><mxGeometry relative="1" as="geometry"/></mxCell><mxCell id="hWmLFaUG1XP1lwcE0nZt-4" style="edgeStyle=orthogonalEdgeStyle;rounded=0;orthogonalLoop=1;jettySize=auto;html=1;fontSize=13;fontColor=#000000;strokeWidth=1;entryX=0.5;entryY=0;entryDx=0;entryDy=0;" edge="1" parent="WIyWlLk6GJQsqaUBKTNV-1" source="hWmLFaUG1XP1lwcE0nZt-2" target="hWmLFaUG1XP1lwcE0nZt-5"><mxGeometry relative="1" as="geometry"><mxPoint x="570" y="560" as="targetPoint"/></mxGeometry></mxCell><mxCell id="hWmLFaUG1XP1lwcE0nZt-5" value="Транзакция" style="swimlane;fontStyle=0;align=center;verticalAlign=top;childLayout=stackLayout;horizontal=1;startSize=30;horizontalStack=0;resizeParent=1;resizeLast=0;collapsible=1;marginBottom=0;rounded=0;shadow=0;strokeWidth=1;" vertex="1" parent="WIyWlLk6GJQsqaUBKTNV-1"><mxGeometry x="420" y="560" width="300" height="160" as="geometry"><mxRectangle x="550" y="140" width="160" height="26" as="alternateBounds"/></mxGeometry></mxCell><mxCell id="hWmLFaUG1XP1lwcE0nZt-6" value="Клиент-ID" style="text;align=left;verticalAlign=top;spacingLeft=4;spacingRight=4;overflow=hidden;rotatable=0;points=[[0,0.5],[1,0.5]];portConstraint=eastwest;rounded=0;shadow=0;html=0;" vertex="1" parent="hWmLFaUG1XP1lwcE0nZt-5"><mxGeometry y="30" width="300" height="26" as="geometry"/></mxCell><mxCell id="hWmLFaUG1XP1lwcE0nZt-7" value="Source account_id (0 если пополнение счёта)" style="text;align=left;verticalAlign=top;spacingLeft=4;spacingRight=4;overflow=hidden;rotatable=0;points=[[0,0.5],[1,0.5]];portConstraint=eastwest;rounded=0;shadow=0;html=0;" vertex="1" parent="hWmLFaUG1XP1lwcE0nZt-5"><mxGeometry y="56" width="300" height="26" as="geometry"/></mxCell><mxCell id="hWmLFaUG1XP1lwcE0nZt-8" value="Target account_id (0 если вывод денег)" style="text;align=left;verticalAlign=top;spacingLeft=4;spacingRight=4;overflow=hidden;rotatable=0;points=[[0,0.5],[1,0.5]];portConstraint=eastwest;rounded=0;shadow=0;html=0;" vertex="1" parent="hWmLFaUG1XP1lwcE0nZt-5"><mxGeometry y="82" width="300" height="26" as="geometry"/></mxCell><mxCell id="hWmLFaUG1XP1lwcE0nZt-9" value="Сумма перевода" style="text;align=left;verticalAlign=top;spacingLeft=4;spacingRight=4;overflow=hidden;rotatable=0;points=[[0,0.5],[1,0.5]];portConstraint=eastwest;rounded=0;shadow=0;html=0;" vertex="1" parent="hWmLFaUG1XP1lwcE0nZt-5"><mxGeometry y="108" width="300" height="26" as="geometry"/></mxCell><mxCell id="_AtGrZtqQiYSkk4Shuf9-0" value="Время и дата транзакции" style="text;align=left;verticalAlign=top;spacingLeft=4;spacingRight=4;overflow=hidden;rotatable=0;points=[[0,0.5],[1,0.5]];portConstraint=eastwest;rounded=0;shadow=0;html=0;" vertex="1" parent="hWmLFaUG1XP1lwcE0nZt-5"><mxGeometry y="134" width="300" height="26" as="geometry"/></mxCell></root></mxGraphModel></diagram><diagram name="CRC-cards" id="e9HIZsAM7sePOQWWQD9b"><mxGraphModel dx="1311" dy="529" grid="1" gridSize="10" guides="1" tooltips="1" connect="1" arrows="1" fold="1" page="1" pageScale="1" pageWidth="827" pageHeight="1169" math="0" shadow="0"><root><mxCell id="OcLMLLM8Gkx3hrb60t5z-0"/><mxCell id="OcLMLLM8Gkx3hrb60t5z-1" parent="OcLMLLM8Gkx3hrb60t5z-0"/><mxCell id="By1PbsnoCTttS2jwV7eL-0" value="Account" style="shape=table;startSize=30;container=1;collapsible=1;childLayout=tableLayout;fixedRows=1;rowLines=0;fontStyle=1;align=center;resizeLast=1;strokeColor=#000000;strokeWidth=1;fillColor=#ffffff;fontSize=13;rounded=0;labelBorderColor=none;" vertex="1" parent="OcLMLLM8Gkx3hrb60t5z-1"><mxGeometry x="440" y="400" width="360" height="110" as="geometry"/></mxCell><mxCell id="By1PbsnoCTttS2jwV7eL-4" value="" style="shape=partialRectangle;collapsible=0;dropTarget=0;pointerEvents=0;fillColor=none;top=0;left=0;bottom=1;right=0;points=[[0,0.5],[1,0.5]];portConstraint=eastwest;labelBorderColor=#000000;strokeWidth=1;" vertex="1" parent="By1PbsnoCTttS2jwV7eL-0"><mxGeometry y="30" width="360" height="20" as="geometry"/></mxCell><mxCell id="By1PbsnoCTttS2jwV7eL-5" value="Resposibility" style="shape=partialRectangle;connectable=0;fillColor=#f5f5f5;top=1;left=1;bottom=1;right=1;fontStyle=1;overflow=hidden;strokeColor=#666666;fontColor=#333333;" vertex="1" parent="By1PbsnoCTttS2jwV7eL-4"><mxGeometry width="200" height="20" as="geometry"/></mxCell><mxCell id="By1PbsnoCTttS2jwV7eL-6" value="Collaborators" style="shape=partialRectangle;connectable=0;fillColor=#f5f5f5;top=1;left=1;bottom=1;right=1;align=center;spacingLeft=3;fontStyle=1;overflow=hidden;perimeterSpacing=0;strokeWidth=1;labelBorderColor=none;labelBackgroundColor=none;strokeColor=#666666;fontColor=#333333;" vertex="1" parent="By1PbsnoCTttS2jwV7eL-4"><mxGeometry x="200" width="160" height="20" as="geometry"/></mxCell><mxCell id="By1PbsnoCTttS2jwV7eL-31" value="" style="shape=partialRectangle;collapsible=0;dropTarget=0;pointerEvents=0;fillColor=none;top=0;left=0;bottom=0;right=0;points=[[0,0.5],[1,0.5]];portConstraint=eastwest;" vertex="1" parent="By1PbsnoCTttS2jwV7eL-0"><mxGeometry y="50" width="360" height="30" as="geometry"/></mxCell><mxCell id="By1PbsnoCTttS2jwV7eL-32" value="get current value" style="shape=partialRectangle;connectable=0;fillColor=none;top=0;left=0;bottom=0;right=0;editable=1;overflow=hidden;align=left;spacingLeft=5;" vertex="1" parent="By1PbsnoCTttS2jwV7eL-31"><mxGeometry width="200" height="30" as="geometry"/></mxCell><mxCell id="By1PbsnoCTttS2jwV7eL-33" value="" style="shape=partialRectangle;connectable=0;fillColor=none;top=0;left=0;bottom=0;right=0;align=left;spacingLeft=5;overflow=hidden;" vertex="1" parent="By1PbsnoCTttS2jwV7eL-31"><mxGeometry x="200" width="160" height="30" as="geometry"/></mxCell><mxCell id="By1PbsnoCTttS2jwV7eL-34" value="" style="shape=partialRectangle;collapsible=0;dropTarget=0;pointerEvents=0;fillColor=none;top=0;left=0;bottom=0;right=0;points=[[0,0.5],[1,0.5]];portConstraint=eastwest;" vertex="1" parent="By1PbsnoCTttS2jwV7eL-0"><mxGeometry y="80" width="360" height="30" as="geometry"/></mxCell><mxCell id="By1PbsnoCTttS2jwV7eL-35" value="get accumulated value" style="shape=partialRectangle;connectable=0;fillColor=none;top=0;left=0;bottom=0;right=0;editable=1;overflow=hidden;align=left;spacingLeft=5;" vertex="1" parent="By1PbsnoCTttS2jwV7eL-34"><mxGeometry width="200" height="30" as="geometry"/></mxCell><mxCell id="By1PbsnoCTttS2jwV7eL-36" value="" style="shape=partialRectangle;connectable=0;fillColor=none;top=0;left=0;bottom=0;right=0;align=left;spacingLeft=5;overflow=hidden;" vertex="1" parent="By1PbsnoCTttS2jwV7eL-34"><mxGeometry x="200" width="160" height="30" as="geometry"/></mxCell><mxCell id="By1PbsnoCTttS2jwV7eL-37" value="Bank" style="shape=table;startSize=30;container=1;collapsible=1;childLayout=tableLayout;fixedRows=1;rowLines=0;fontStyle=1;align=center;resizeLast=1;strokeColor=#000000;strokeWidth=1;fillColor=#ffffff;fontSize=13;rounded=0;labelBorderColor=none;" vertex="1" parent="OcLMLLM8Gkx3hrb60t5z-1"><mxGeometry x="440" y="120" width="360" height="260" as="geometry"/></mxCell><mxCell id="By1PbsnoCTttS2jwV7eL-38" value="" style="shape=partialRectangle;collapsible=0;dropTarget=0;pointerEvents=0;fillColor=none;top=0;left=0;bottom=1;right=0;points=[[0,0.5],[1,0.5]];portConstraint=eastwest;labelBorderColor=#000000;strokeWidth=1;" vertex="1" parent="By1PbsnoCTttS2jwV7eL-37"><mxGeometry y="30" width="360" height="20" as="geometry"/></mxCell><mxCell id="By1PbsnoCTttS2jwV7eL-39" value="Resposibility" style="shape=partialRectangle;connectable=0;fillColor=#f5f5f5;top=1;left=1;bottom=1;right=1;fontStyle=1;overflow=hidden;strokeColor=#666666;fontColor=#333333;" vertex="1" parent="By1PbsnoCTttS2jwV7eL-38"><mxGeometry width="200" height="20" as="geometry"/></mxCell><mxCell id="By1PbsnoCTttS2jwV7eL-40" value="Collaborators" style="shape=partialRectangle;connectable=0;fillColor=#f5f5f5;top=1;left=1;bottom=1;right=1;align=center;spacingLeft=3;fontStyle=1;overflow=hidden;perimeterSpacing=0;strokeWidth=1;labelBorderColor=none;labelBackgroundColor=none;strokeColor=#666666;fontColor=#333333;" vertex="1" parent="By1PbsnoCTttS2jwV7eL-38"><mxGeometry x="200" width="160" height="20" as="geometry"/></mxCell><mxCell id="By1PbsnoCTttS2jwV7eL-50" value="" style="shape=partialRectangle;collapsible=0;dropTarget=0;pointerEvents=0;fillColor=none;top=0;left=0;bottom=0;right=0;points=[[0,0.5],[1,0.5]];portConstraint=eastwest;" vertex="1" parent="By1PbsnoCTttS2jwV7eL-37"><mxGeometry y="50" width="360" height="30" as="geometry"/></mxCell><mxCell id="By1PbsnoCTttS2jwV7eL-51" value="open account" style="shape=partialRectangle;connectable=0;fillColor=none;top=0;left=0;bottom=0;right=0;editable=1;overflow=hidden;align=left;spacingLeft=5;" vertex="1" parent="By1PbsnoCTttS2jwV7eL-50"><mxGeometry width="200" height="30" as="geometry"/></mxCell><mxCell id="By1PbsnoCTttS2jwV7eL-52" value="Account" style="shape=partialRectangle;connectable=0;fillColor=none;top=0;left=0;bottom=0;right=0;align=left;spacingLeft=5;overflow=hidden;" vertex="1" parent="By1PbsnoCTttS2jwV7eL-50"><mxGeometry x="200" width="160" height="30" as="geometry"/></mxCell><mxCell id="By1PbsnoCTttS2jwV7eL-53" value="" style="shape=partialRectangle;collapsible=0;dropTarget=0;pointerEvents=0;fillColor=none;top=0;left=0;bottom=0;right=0;points=[[0,0.5],[1,0.5]];portConstraint=eastwest;" vertex="1" parent="By1PbsnoCTttS2jwV7eL-37"><mxGeometry y="80" width="360" height="30" as="geometry"/></mxCell><mxCell id="By1PbsnoCTttS2jwV7eL-54" value="close account" style="shape=partialRectangle;connectable=0;fillColor=none;top=0;left=0;bottom=0;right=0;editable=1;overflow=hidden;align=left;spacingLeft=5;" vertex="1" parent="By1PbsnoCTttS2jwV7eL-53"><mxGeometry width="200" height="30" as="geometry"/></mxCell><mxCell id="By1PbsnoCTttS2jwV7eL-55" value="Client (open account)" style="shape=partialRectangle;connectable=0;fillColor=none;top=0;left=0;bottom=0;right=0;align=left;spacingLeft=5;overflow=hidden;" vertex="1" parent="By1PbsnoCTttS2jwV7eL-53"><mxGeometry x="200" width="160" height="30" as="geometry"/></mxCell><mxCell id="By1PbsnoCTttS2jwV7eL-44" value="" style="shape=partialRectangle;collapsible=0;dropTarget=0;pointerEvents=0;fillColor=none;top=0;left=0;bottom=0;right=0;points=[[0,0.5],[1,0.5]];portConstraint=eastwest;" vertex="1" parent="By1PbsnoCTttS2jwV7eL-37"><mxGeometry y="110" width="360" height="30" as="geometry"/></mxCell><mxCell id="By1PbsnoCTttS2jwV7eL-45" value="perform transaction" style="shape=partialRectangle;connectable=0;fillColor=none;top=0;left=0;bottom=0;right=0;editable=1;overflow=hidden;align=left;spacingLeft=5;" vertex="1" parent="By1PbsnoCTttS2jwV7eL-44"><mxGeometry width="200" height="30" as="geometry"/></mxCell><mxCell id="By1PbsnoCTttS2jwV7eL-46" value="Predictor" style="shape=partialRectangle;connectable=0;fillColor=none;top=0;left=0;bottom=0;right=0;align=left;spacingLeft=5;overflow=hidden;" vertex="1" parent="By1PbsnoCTttS2jwV7eL-44"><mxGeometry x="200" width="160" height="30" as="geometry"/></mxCell><mxCell id="Stn7tqgDKdXhzLKo9Z8q-0" value="" style="shape=partialRectangle;collapsible=0;dropTarget=0;pointerEvents=0;fillColor=none;top=0;left=0;bottom=0;right=0;points=[[0,0.5],[1,0.5]];portConstraint=eastwest;" vertex="1" parent="By1PbsnoCTttS2jwV7eL-37"><mxGeometry y="140" width="360" height="30" as="geometry"/></mxCell><mxCell id="Stn7tqgDKdXhzLKo9Z8q-1" value="day-update accounts" style="shape=partialRectangle;connectable=0;fillColor=none;top=0;left=0;bottom=0;right=0;editable=1;overflow=hidden;align=left;spacingLeft=5;" vertex="1" parent="Stn7tqgDKdXhzLKo9Z8q-0"><mxGeometry width="200" height="30" as="geometry"/></mxCell><mxCell id="Stn7tqgDKdXhzLKo9Z8q-2" value="Transaction" style="shape=partialRectangle;connectable=0;fillColor=none;top=0;left=0;bottom=0;right=0;align=left;spacingLeft=5;overflow=hidden;" vertex="1" parent="Stn7tqgDKdXhzLKo9Z8q-0"><mxGeometry x="200" width="160" height="30" as="geometry"/></mxCell><mxCell id="By1PbsnoCTttS2jwV7eL-47" value="" style="shape=partialRectangle;collapsible=0;dropTarget=0;pointerEvents=0;fillColor=none;top=0;left=0;bottom=0;right=0;points=[[0,0.5],[1,0.5]];portConstraint=eastwest;" vertex="1" parent="By1PbsnoCTttS2jwV7eL-37"><mxGeometry y="170" width="360" height="30" as="geometry"/></mxCell><mxCell id="By1PbsnoCTttS2jwV7eL-48" value="month-update accounts" style="shape=partialRectangle;connectable=0;fillColor=none;top=0;left=0;bottom=0;right=0;editable=1;overflow=hidden;align=left;spacingLeft=5;" vertex="1" parent="By1PbsnoCTttS2jwV7eL-47"><mxGeometry width="200" height="30" as="geometry"/></mxCell><mxCell id="By1PbsnoCTttS2jwV7eL-49" value="" style="shape=partialRectangle;connectable=0;fillColor=none;top=0;left=0;bottom=0;right=0;align=left;spacingLeft=5;overflow=hidden;" vertex="1" parent="By1PbsnoCTttS2jwV7eL-47"><mxGeometry x="200" width="160" height="30" as="geometry"/></mxCell><mxCell id="zcGxL2-EcBVZad1-NjQu-0" value="" style="shape=partialRectangle;collapsible=0;dropTarget=0;pointerEvents=0;fillColor=none;top=0;left=0;bottom=0;right=0;points=[[0,0.5],[1,0.5]];portConstraint=eastwest;" vertex="1" parent="By1PbsnoCTttS2jwV7eL-37"><mxGeometry y="200" width="360" height="30" as="geometry"/></mxCell><mxCell id="zcGxL2-EcBVZad1-NjQu-1" value="get bank broker" style="shape=partialRectangle;connectable=0;fillColor=none;top=0;left=0;bottom=0;right=0;editable=1;overflow=hidden;align=left;spacingLeft=5;" vertex="1" parent="zcGxL2-EcBVZad1-NjQu-0"><mxGeometry width="200" height="30" as="geometry"/></mxCell><mxCell id="zcGxL2-EcBVZad1-NjQu-2" value="" style="shape=partialRectangle;connectable=0;fillColor=none;top=0;left=0;bottom=0;right=0;align=left;spacingLeft=5;overflow=hidden;" vertex="1" parent="zcGxL2-EcBVZad1-NjQu-0"><mxGeometry x="200" width="160" height="30" as="geometry"/></mxCell><mxCell id="By1PbsnoCTttS2jwV7eL-41" value="" style="shape=partialRectangle;collapsible=0;dropTarget=0;pointerEvents=0;fillColor=none;top=0;left=0;bottom=0;right=0;points=[[0,0.5],[1,0.5]];portConstraint=eastwest;" vertex="1" parent="By1PbsnoCTttS2jwV7eL-37"><mxGeometry y="230" width="360" height="30" as="geometry"/></mxCell><mxCell id="By1PbsnoCTttS2jwV7eL-42" value="get user or money statistic ..." style="shape=partialRectangle;connectable=0;fillColor=none;top=0;left=0;bottom=0;right=0;editable=1;overflow=hidden;align=left;spacingLeft=5;" vertex="1" parent="By1PbsnoCTttS2jwV7eL-41"><mxGeometry width="200" height="30" as="geometry"/></mxCell><mxCell id="By1PbsnoCTttS2jwV7eL-43" value="" style="shape=partialRectangle;connectable=0;fillColor=none;top=0;left=0;bottom=0;right=0;align=left;spacingLeft=5;overflow=hidden;" vertex="1" parent="By1PbsnoCTttS2jwV7eL-41"><mxGeometry x="200" width="160" height="30" as="geometry"/></mxCell><mxCell id="7fjVQAdRIqJfg05wPcvQ-0" value="Client" style="shape=table;startSize=30;container=1;collapsible=1;childLayout=tableLayout;fixedRows=1;rowLines=0;fontStyle=1;align=center;resizeLast=1;strokeColor=#000000;strokeWidth=1;fillColor=#ffffff;fontSize=13;rounded=0;labelBorderColor=none;" vertex="1" parent="OcLMLLM8Gkx3hrb60t5z-1"><mxGeometry x="40" y="120" width="360" height="290" as="geometry"/></mxCell><mxCell id="7fjVQAdRIqJfg05wPcvQ-1" value="" style="shape=partialRectangle;collapsible=0;dropTarget=0;pointerEvents=0;fillColor=none;top=0;left=0;bottom=1;right=0;points=[[0,0.5],[1,0.5]];portConstraint=eastwest;labelBorderColor=#000000;strokeWidth=1;" vertex="1" parent="7fjVQAdRIqJfg05wPcvQ-0"><mxGeometry y="30" width="360" height="20" as="geometry"/></mxCell><mxCell id="7fjVQAdRIqJfg05wPcvQ-2" value="Resposibility" style="shape=partialRectangle;connectable=0;fillColor=#f5f5f5;top=1;left=1;bottom=1;right=1;fontStyle=1;overflow=hidden;strokeColor=#666666;fontColor=#333333;" vertex="1" parent="7fjVQAdRIqJfg05wPcvQ-1"><mxGeometry width="200" height="20" as="geometry"/></mxCell><mxCell id="7fjVQAdRIqJfg05wPcvQ-3" value="Collaborators" style="shape=partialRectangle;connectable=0;fillColor=#f5f5f5;top=1;left=1;bottom=1;right=1;align=center;spacingLeft=3;fontStyle=1;overflow=hidden;perimeterSpacing=0;strokeWidth=1;labelBorderColor=none;labelBackgroundColor=none;strokeColor=#666666;fontColor=#333333;" vertex="1" parent="7fjVQAdRIqJfg05wPcvQ-1"><mxGeometry x="200" width="160" height="20" as="geometry"/></mxCell><mxCell id="7fjVQAdRIqJfg05wPcvQ-13" value="" style="shape=partialRectangle;collapsible=0;dropTarget=0;pointerEvents=0;fillColor=none;top=0;left=0;bottom=0;right=0;points=[[0,0.5],[1,0.5]];portConstraint=eastwest;" vertex="1" parent="7fjVQAdRIqJfg05wPcvQ-0"><mxGeometry y="50" width="360" height="30" as="geometry"/></mxCell><mxCell id="7fjVQAdRIqJfg05wPcvQ-14" value="add account" style="shape=partialRectangle;connectable=0;fillColor=none;top=0;left=0;bottom=0;right=0;editable=1;overflow=hidden;align=left;spacingLeft=5;" vertex="1" parent="7fjVQAdRIqJfg05wPcvQ-13"><mxGeometry width="200" height="30" as="geometry"/></mxCell><mxCell id="7fjVQAdRIqJfg05wPcvQ-15" value="Account" style="shape=partialRectangle;connectable=0;fillColor=none;top=0;left=0;bottom=0;right=0;align=left;spacingLeft=5;overflow=hidden;" vertex="1" parent="7fjVQAdRIqJfg05wPcvQ-13"><mxGeometry x="200" width="160" height="30" as="geometry"/></mxCell><mxCell id="7fjVQAdRIqJfg05wPcvQ-16" value="" style="shape=partialRectangle;collapsible=0;dropTarget=0;pointerEvents=0;fillColor=none;top=0;left=0;bottom=0;right=0;points=[[0,0.5],[1,0.5]];portConstraint=eastwest;" vertex="1" parent="7fjVQAdRIqJfg05wPcvQ-0"><mxGeometry y="80" width="360" height="30" as="geometry"/></mxCell><mxCell id="7fjVQAdRIqJfg05wPcvQ-17" value="close account" style="shape=partialRectangle;connectable=0;fillColor=none;top=0;left=0;bottom=0;right=0;editable=1;overflow=hidden;align=left;spacingLeft=5;" vertex="1" parent="7fjVQAdRIqJfg05wPcvQ-16"><mxGeometry width="200" height="30" as="geometry"/></mxCell><mxCell id="7fjVQAdRIqJfg05wPcvQ-18" value="Broker" style="shape=partialRectangle;connectable=0;fillColor=none;top=0;left=0;bottom=0;right=0;align=left;spacingLeft=5;overflow=hidden;" vertex="1" parent="7fjVQAdRIqJfg05wPcvQ-16"><mxGeometry x="200" width="160" height="30" as="geometry"/></mxCell><mxCell id="7fjVQAdRIqJfg05wPcvQ-4" value="" style="shape=partialRectangle;collapsible=0;dropTarget=0;pointerEvents=0;fillColor=none;top=0;left=0;bottom=0;right=0;points=[[0,0.5],[1,0.5]];portConstraint=eastwest;" vertex="1" parent="7fjVQAdRIqJfg05wPcvQ-0"><mxGeometry y="110" width="360" height="30" as="geometry"/></mxCell><mxCell id="7fjVQAdRIqJfg05wPcvQ-5" value="withdraw money" style="shape=partialRectangle;connectable=0;fillColor=none;top=0;left=0;bottom=0;right=0;editable=1;overflow=hidden;align=left;spacingLeft=5;" vertex="1" parent="7fjVQAdRIqJfg05wPcvQ-4"><mxGeometry width="200" height="30" as="geometry"/></mxCell><mxCell id="7fjVQAdRIqJfg05wPcvQ-6" value="Bank" style="shape=partialRectangle;connectable=0;fillColor=none;top=0;left=0;bottom=0;right=0;align=left;spacingLeft=5;overflow=hidden;" vertex="1" parent="7fjVQAdRIqJfg05wPcvQ-4"><mxGeometry x="200" width="160" height="30" as="geometry"/></mxCell><mxCell id="7fjVQAdRIqJfg05wPcvQ-7" value="" style="shape=partialRectangle;collapsible=0;dropTarget=0;pointerEvents=0;fillColor=none;top=0;left=0;bottom=0;right=0;points=[[0,0.5],[1,0.5]];portConstraint=eastwest;" vertex="1" parent="7fjVQAdRIqJfg05wPcvQ-0"><mxGeometry y="140" width="360" height="30" as="geometry"/></mxCell><mxCell id="7fjVQAdRIqJfg05wPcvQ-8" value="transfer money" style="shape=partialRectangle;connectable=0;fillColor=none;top=0;left=0;bottom=0;right=0;editable=1;overflow=hidden;align=left;spacingLeft=5;" vertex="1" parent="7fjVQAdRIqJfg05wPcvQ-7"><mxGeometry width="200" height="30" as="geometry"/></mxCell><mxCell id="7fjVQAdRIqJfg05wPcvQ-9" value="" style="shape=partialRectangle;connectable=0;fillColor=none;top=0;left=0;bottom=0;right=0;align=left;spacingLeft=5;overflow=hidden;" vertex="1" parent="7fjVQAdRIqJfg05wPcvQ-7"><mxGeometry x="200" width="160" height="30" as="geometry"/></mxCell><mxCell id="_mgooNKQvqDmlhtbmaRS-3" value="" style="shape=partialRectangle;collapsible=0;dropTarget=0;pointerEvents=0;fillColor=none;top=0;left=0;bottom=0;right=0;points=[[0,0.5],[1,0.5]];portConstraint=eastwest;" vertex="1" parent="7fjVQAdRIqJfg05wPcvQ-0"><mxGeometry y="170" width="360" height="30" as="geometry"/></mxCell><mxCell id="_mgooNKQvqDmlhtbmaRS-4" value="contribute money" style="shape=partialRectangle;connectable=0;fillColor=none;top=0;left=0;bottom=0;right=0;editable=1;overflow=hidden;align=left;spacingLeft=5;" vertex="1" parent="_mgooNKQvqDmlhtbmaRS-3"><mxGeometry width="200" height="30" as="geometry"/></mxCell><mxCell id="_mgooNKQvqDmlhtbmaRS-5" value="" style="shape=partialRectangle;connectable=0;fillColor=none;top=0;left=0;bottom=0;right=0;align=left;spacingLeft=5;overflow=hidden;" vertex="1" parent="_mgooNKQvqDmlhtbmaRS-3"><mxGeometry x="200" width="160" height="30" as="geometry"/></mxCell><mxCell id="7dBAD10wBzkxOIqTmgPE-3" value="" style="shape=partialRectangle;collapsible=0;dropTarget=0;pointerEvents=0;fillColor=none;top=0;left=0;bottom=0;right=0;points=[[0,0.5],[1,0.5]];portConstraint=eastwest;" vertex="1" parent="7fjVQAdRIqJfg05wPcvQ-0"><mxGeometry y="200" width="360" height="30" as="geometry"/></mxCell><mxCell id="7dBAD10wBzkxOIqTmgPE-4" value="get user info" style="shape=partialRectangle;connectable=0;fillColor=none;top=0;left=0;bottom=0;right=0;editable=1;overflow=hidden;align=left;spacingLeft=5;" vertex="1" parent="7dBAD10wBzkxOIqTmgPE-3"><mxGeometry width="200" height="30" as="geometry"/></mxCell><mxCell id="7dBAD10wBzkxOIqTmgPE-5" value="" style="shape=partialRectangle;connectable=0;fillColor=none;top=0;left=0;bottom=0;right=0;align=left;spacingLeft=5;overflow=hidden;" vertex="1" parent="7dBAD10wBzkxOIqTmgPE-3"><mxGeometry x="200" width="160" height="30" as="geometry"/></mxCell><mxCell id="_mgooNKQvqDmlhtbmaRS-9" value="" style="shape=partialRectangle;collapsible=0;dropTarget=0;pointerEvents=0;fillColor=none;top=0;left=0;bottom=0;right=0;points=[[0,0.5],[1,0.5]];portConstraint=eastwest;" vertex="1" parent="7fjVQAdRIqJfg05wPcvQ-0"><mxGeometry y="230" width="360" height="30" as="geometry"/></mxCell><mxCell id="_mgooNKQvqDmlhtbmaRS-10" value="change user info" style="shape=partialRectangle;connectable=0;fillColor=none;top=0;left=0;bottom=0;right=0;editable=1;overflow=hidden;align=left;spacingLeft=5;" vertex="1" parent="_mgooNKQvqDmlhtbmaRS-9"><mxGeometry width="200" height="30" as="geometry"/></mxCell><mxCell id="_mgooNKQvqDmlhtbmaRS-11" value="" style="shape=partialRectangle;connectable=0;fillColor=none;top=0;left=0;bottom=0;right=0;align=left;spacingLeft=5;overflow=hidden;" vertex="1" parent="_mgooNKQvqDmlhtbmaRS-9"><mxGeometry x="200" width="160" height="30" as="geometry"/></mxCell><mxCell id="ioVMv9b4iiEASPsL3AIr-0" value="" style="shape=partialRectangle;collapsible=0;dropTarget=0;pointerEvents=0;fillColor=none;top=0;left=0;bottom=0;right=0;points=[[0,0.5],[1,0.5]];portConstraint=eastwest;" vertex="1" parent="7fjVQAdRIqJfg05wPcvQ-0"><mxGeometry y="260" width="360" height="30" as="geometry"/></mxCell><mxCell id="ioVMv9b4iiEASPsL3AIr-1" value="is user verified" style="shape=partialRectangle;connectable=0;fillColor=none;top=0;left=0;bottom=0;right=0;editable=1;overflow=hidden;align=left;spacingLeft=5;" vertex="1" parent="ioVMv9b4iiEASPsL3AIr-0"><mxGeometry width="200" height="30" as="geometry"/></mxCell><mxCell id="ioVMv9b4iiEASPsL3AIr-2" value="" style="shape=partialRectangle;connectable=0;fillColor=none;top=0;left=0;bottom=0;right=0;align=left;spacingLeft=5;overflow=hidden;" vertex="1" parent="ioVMv9b4iiEASPsL3AIr-0"><mxGeometry x="200" width="160" height="30" as="geometry"/></mxCell><mxCell id="7fjVQAdRIqJfg05wPcvQ-19" value="Broker" style="shape=table;startSize=30;container=1;collapsible=1;childLayout=tableLayout;fixedRows=1;rowLines=0;fontStyle=1;align=center;resizeLast=1;strokeColor=#000000;strokeWidth=1;fillColor=#ffffff;fontSize=13;rounded=0;labelBorderColor=none;" vertex="1" parent="OcLMLLM8Gkx3hrb60t5z-1"><mxGeometry x="40" y="440" width="360" height="140" as="geometry"/></mxCell><mxCell id="7fjVQAdRIqJfg05wPcvQ-20" value="" style="shape=partialRectangle;collapsible=0;dropTarget=0;pointerEvents=0;fillColor=none;top=0;left=0;bottom=1;right=0;points=[[0,0.5],[1,0.5]];portConstraint=eastwest;labelBorderColor=#000000;strokeWidth=1;" vertex="1" parent="7fjVQAdRIqJfg05wPcvQ-19"><mxGeometry y="30" width="360" height="20" as="geometry"/></mxCell><mxCell id="7fjVQAdRIqJfg05wPcvQ-21" value="Resposibility" style="shape=partialRectangle;connectable=0;fillColor=#f5f5f5;top=1;left=1;bottom=1;right=1;fontStyle=1;overflow=hidden;strokeColor=#666666;fontColor=#333333;" vertex="1" parent="7fjVQAdRIqJfg05wPcvQ-20"><mxGeometry width="200" height="20" as="geometry"/></mxCell><mxCell id="7fjVQAdRIqJfg05wPcvQ-22" value="Collaborators" style="shape=partialRectangle;connectable=0;fillColor=#f5f5f5;top=1;left=1;bottom=1;right=1;align=center;spacingLeft=3;fontStyle=1;overflow=hidden;perimeterSpacing=0;strokeWidth=1;labelBorderColor=none;labelBackgroundColor=none;strokeColor=#666666;fontColor=#333333;" vertex="1" parent="7fjVQAdRIqJfg05wPcvQ-20"><mxGeometry x="200" width="160" height="20" as="geometry"/></mxCell><mxCell id="7fjVQAdRIqJfg05wPcvQ-23" value="" style="shape=partialRectangle;collapsible=0;dropTarget=0;pointerEvents=0;fillColor=none;top=0;left=0;bottom=0;right=0;points=[[0,0.5],[1,0.5]];portConstraint=eastwest;" vertex="1" parent="7fjVQAdRIqJfg05wPcvQ-19"><mxGeometry y="50" width="360" height="30" as="geometry"/></mxCell><mxCell id="7fjVQAdRIqJfg05wPcvQ-24" value="withdraw money" style="shape=partialRectangle;connectable=0;fillColor=none;top=0;left=0;bottom=0;right=0;editable=1;overflow=hidden;align=left;spacingLeft=5;" vertex="1" parent="7fjVQAdRIqJfg05wPcvQ-23"><mxGeometry width="200" height="30" as="geometry"/></mxCell><mxCell id="7fjVQAdRIqJfg05wPcvQ-25" value="Transaction" style="shape=partialRectangle;connectable=0;fillColor=none;top=0;left=0;bottom=0;right=0;align=left;spacingLeft=5;overflow=hidden;" vertex="1" parent="7fjVQAdRIqJfg05wPcvQ-23"><mxGeometry x="200" width="160" height="30" as="geometry"/></mxCell><mxCell id="_mgooNKQvqDmlhtbmaRS-6" value="" style="shape=partialRectangle;collapsible=0;dropTarget=0;pointerEvents=0;fillColor=none;top=0;left=0;bottom=0;right=0;points=[[0,0.5],[1,0.5]];portConstraint=eastwest;" vertex="1" parent="7fjVQAdRIqJfg05wPcvQ-19"><mxGeometry y="80" width="360" height="30" as="geometry"/></mxCell><mxCell id="_mgooNKQvqDmlhtbmaRS-7" value="contribute money" style="shape=partialRectangle;connectable=0;fillColor=none;top=0;left=0;bottom=0;right=0;editable=1;overflow=hidden;align=left;spacingLeft=5;" vertex="1" parent="_mgooNKQvqDmlhtbmaRS-6"><mxGeometry width="200" height="30" as="geometry"/></mxCell><mxCell id="_mgooNKQvqDmlhtbmaRS-8" value="Bank" style="shape=partialRectangle;connectable=0;fillColor=none;top=0;left=0;bottom=0;right=0;align=left;spacingLeft=5;overflow=hidden;" vertex="1" parent="_mgooNKQvqDmlhtbmaRS-6"><mxGeometry x="200" width="160" height="30" as="geometry"/></mxCell><mxCell id="7fjVQAdRIqJfg05wPcvQ-26" value="" style="shape=partialRectangle;collapsible=0;dropTarget=0;pointerEvents=0;fillColor=none;top=0;left=0;bottom=0;right=0;points=[[0,0.5],[1,0.5]];portConstraint=eastwest;" vertex="1" parent="7fjVQAdRIqJfg05wPcvQ-19"><mxGeometry y="110" width="360" height="30" as="geometry"/></mxCell><mxCell id="7fjVQAdRIqJfg05wPcvQ-27" value="transfer money" style="shape=partialRectangle;connectable=0;fillColor=none;top=0;left=0;bottom=0;right=0;editable=1;overflow=hidden;align=left;spacingLeft=5;" vertex="1" parent="7fjVQAdRIqJfg05wPcvQ-26"><mxGeometry width="200" height="30" as="geometry"/></mxCell><mxCell id="7fjVQAdRIqJfg05wPcvQ-28" value="" style="shape=partialRectangle;connectable=0;fillColor=none;top=0;left=0;bottom=0;right=0;align=left;spacingLeft=5;overflow=hidden;" vertex="1" parent="7fjVQAdRIqJfg05wPcvQ-26"><mxGeometry x="200" width="160" height="30" as="geometry"/></mxCell><mxCell id="7fjVQAdRIqJfg05wPcvQ-38" value="Predictor" style="shape=table;startSize=30;container=1;collapsible=1;childLayout=tableLayout;fixedRows=1;rowLines=0;fontStyle=1;align=center;resizeLast=1;strokeColor=#000000;strokeWidth=1;fillColor=#ffffff;fontSize=13;rounded=0;labelBorderColor=none;" vertex="1" parent="OcLMLLM8Gkx3hrb60t5z-1"><mxGeometry x="40" y="620" width="360" height="110" as="geometry"/></mxCell><mxCell id="7fjVQAdRIqJfg05wPcvQ-39" value="" style="shape=partialRectangle;collapsible=0;dropTarget=0;pointerEvents=0;fillColor=none;top=0;left=0;bottom=1;right=0;points=[[0,0.5],[1,0.5]];portConstraint=eastwest;labelBorderColor=#000000;strokeWidth=1;" vertex="1" parent="7fjVQAdRIqJfg05wPcvQ-38"><mxGeometry y="30" width="360" height="20" as="geometry"/></mxCell><mxCell id="7fjVQAdRIqJfg05wPcvQ-40" value="Resposibility" style="shape=partialRectangle;connectable=0;fillColor=#f5f5f5;top=1;left=1;bottom=1;right=1;fontStyle=1;overflow=hidden;strokeColor=#666666;fontColor=#333333;" vertex="1" parent="7fjVQAdRIqJfg05wPcvQ-39"><mxGeometry width="200" height="20" as="geometry"/></mxCell><mxCell id="7fjVQAdRIqJfg05wPcvQ-41" value="Collaborators" style="shape=partialRectangle;connectable=0;fillColor=#f5f5f5;top=1;left=1;bottom=1;right=1;align=center;spacingLeft=3;fontStyle=1;overflow=hidden;perimeterSpacing=0;strokeWidth=1;labelBorderColor=none;labelBackgroundColor=none;strokeColor=#666666;fontColor=#333333;" vertex="1" parent="7fjVQAdRIqJfg05wPcvQ-39"><mxGeometry x="200" width="160" height="20" as="geometry"/></mxCell><mxCell id="7fjVQAdRIqJfg05wPcvQ-42" value="" style="shape=partialRectangle;collapsible=0;dropTarget=0;pointerEvents=0;fillColor=none;top=0;left=0;bottom=0;right=0;points=[[0,0.5],[1,0.5]];portConstraint=eastwest;" vertex="1" parent="7fjVQAdRIqJfg05wPcvQ-38"><mxGeometry y="50" width="360" height="30" as="geometry"/></mxCell><mxCell id="7fjVQAdRIqJfg05wPcvQ-43" value="calculate some statistic ..." style="shape=partialRectangle;connectable=0;fillColor=none;top=0;left=0;bottom=0;right=0;editable=1;overflow=hidden;align=left;spacingLeft=5;" vertex="1" parent="7fjVQAdRIqJfg05wPcvQ-42"><mxGeometry width="200" height="30" as="geometry"/></mxCell><mxCell id="7fjVQAdRIqJfg05wPcvQ-44" value="Bank" style="shape=partialRectangle;connectable=0;fillColor=none;top=0;left=0;bottom=0;right=0;align=left;spacingLeft=5;overflow=hidden;" vertex="1" parent="7fjVQAdRIqJfg05wPcvQ-42"><mxGeometry x="200" width="160" height="30" as="geometry"/></mxCell><mxCell id="7fjVQAdRIqJfg05wPcvQ-48" value="" style="shape=partialRectangle;collapsible=0;dropTarget=0;pointerEvents=0;fillColor=none;top=0;left=0;bottom=0;right=0;points=[[0,0.5],[1,0.5]];portConstraint=eastwest;" vertex="1" parent="7fjVQAdRIqJfg05wPcvQ-38"><mxGeometry y="80" width="360" height="30" as="geometry"/></mxCell><mxCell id="7fjVQAdRIqJfg05wPcvQ-49" value="" style="shape=partialRectangle;connectable=0;fillColor=none;top=0;left=0;bottom=0;right=0;editable=1;overflow=hidden;align=left;spacingLeft=5;" vertex="1" parent="7fjVQAdRIqJfg05wPcvQ-48"><mxGeometry width="200" height="30" as="geometry"/></mxCell><mxCell id="7fjVQAdRIqJfg05wPcvQ-50" value="Account" style="shape=partialRectangle;connectable=0;fillColor=none;top=0;left=0;bottom=0;right=0;align=left;spacingLeft=5;overflow=hidden;" vertex="1" parent="7fjVQAdRIqJfg05wPcvQ-48"><mxGeometry x="200" width="160" height="30" as="geometry"/></mxCell><mxCell id="FB323xzFSKaeo3RXp5gH-6" value="Adress" style="shape=table;startSize=30;container=1;collapsible=1;childLayout=tableLayout;fixedRows=1;rowLines=0;fontStyle=1;align=center;resizeLast=1;strokeColor=#000000;strokeWidth=1;fillColor=#ffffff;fontSize=13;rounded=0;labelBorderColor=none;" vertex="1" parent="OcLMLLM8Gkx3hrb60t5z-1"><mxGeometry x="440" y="540" width="360" height="80" as="geometry"/></mxCell><mxCell id="FB323xzFSKaeo3RXp5gH-7" value="" style="shape=partialRectangle;collapsible=0;dropTarget=0;pointerEvents=0;fillColor=none;top=0;left=0;bottom=1;right=0;points=[[0,0.5],[1,0.5]];portConstraint=eastwest;labelBorderColor=#000000;strokeWidth=1;" vertex="1" parent="FB323xzFSKaeo3RXp5gH-6"><mxGeometry y="30" width="360" height="20" as="geometry"/></mxCell><mxCell id="FB323xzFSKaeo3RXp5gH-8" value="Resposibility" style="shape=partialRectangle;connectable=0;fillColor=#f5f5f5;top=1;left=1;bottom=1;right=1;fontStyle=1;overflow=hidden;strokeColor=#666666;fontColor=#333333;" vertex="1" parent="FB323xzFSKaeo3RXp5gH-7"><mxGeometry width="200" height="20" as="geometry"/></mxCell><mxCell id="FB323xzFSKaeo3RXp5gH-9" value="Collaborators" style="shape=partialRectangle;connectable=0;fillColor=#f5f5f5;top=1;left=1;bottom=1;right=1;align=center;spacingLeft=3;fontStyle=1;overflow=hidden;perimeterSpacing=0;strokeWidth=1;labelBorderColor=none;labelBackgroundColor=none;strokeColor=#666666;fontColor=#333333;" vertex="1" parent="FB323xzFSKaeo3RXp5gH-7"><mxGeometry x="200" width="160" height="20" as="geometry"/></mxCell><mxCell id="FB323xzFSKaeo3RXp5gH-10" value="" style="shape=partialRectangle;collapsible=0;dropTarget=0;pointerEvents=0;fillColor=none;top=0;left=0;bottom=0;right=0;points=[[0,0.5],[1,0.5]];portConstraint=eastwest;" vertex="1" parent="FB323xzFSKaeo3RXp5gH-6"><mxGeometry y="50" width="360" height="30" as="geometry"/></mxCell><mxCell id="FB323xzFSKaeo3RXp5gH-11" value="some getters ..." style="shape=partialRectangle;connectable=0;fillColor=none;top=0;left=0;bottom=0;right=0;editable=1;overflow=hidden;align=left;spacingLeft=5;" vertex="1" parent="FB323xzFSKaeo3RXp5gH-10"><mxGeometry width="200" height="30" as="geometry"/></mxCell><mxCell id="FB323xzFSKaeo3RXp5gH-12" value="" style="shape=partialRectangle;connectable=0;fillColor=none;top=0;left=0;bottom=0;right=0;align=left;spacingLeft=5;overflow=hidden;" vertex="1" parent="FB323xzFSKaeo3RXp5gH-10"><mxGeometry x="200" width="160" height="30" as="geometry"/></mxCell><mxCell id="-Fm85XxZvU-JdtsQw668-0" value="&lt;span style=&quot;font-size: 15px&quot;&gt;По запросу пользователя брокер формирует транзакцию, &lt;br&gt;&amp;nbsp;которая будет направлена в банк и записана в лог последних произведённых транзакций&amp;nbsp;&lt;br&gt;&lt;/span&gt;" style="text;html=1;align=center;verticalAlign=middle;resizable=0;points=[];autosize=1;strokeColor=none;fontSize=13;fontColor=#000000;fontStyle=2;labelBorderColor=#000000;spacing=7;" vertex="1" parent="OcLMLLM8Gkx3hrb60t5z-1"><mxGeometry x="66" y="35" width="680" height="50" as="geometry"/></mxCell><mxCell id="VhsP55BZvWKyUML8L4am-4" value="Transaction" style="shape=table;startSize=30;container=1;collapsible=1;childLayout=tableLayout;fixedRows=1;rowLines=0;fontStyle=1;align=center;resizeLast=1;strokeColor=#000000;strokeWidth=1;fillColor=#ffffff;fontSize=13;rounded=0;labelBorderColor=none;" vertex="1" parent="OcLMLLM8Gkx3hrb60t5z-1"><mxGeometry x="440" y="650" width="360" height="80" as="geometry"/></mxCell><mxCell id="VhsP55BZvWKyUML8L4am-5" value="" style="shape=partialRectangle;collapsible=0;dropTarget=0;pointerEvents=0;fillColor=none;top=0;left=0;bottom=1;right=0;points=[[0,0.5],[1,0.5]];portConstraint=eastwest;labelBorderColor=#000000;strokeWidth=1;" vertex="1" parent="VhsP55BZvWKyUML8L4am-4"><mxGeometry y="30" width="360" height="20" as="geometry"/></mxCell><mxCell id="VhsP55BZvWKyUML8L4am-6" value="Resposibility" style="shape=partialRectangle;connectable=0;fillColor=#f5f5f5;top=1;left=1;bottom=1;right=1;fontStyle=1;overflow=hidden;strokeColor=#666666;fontColor=#333333;" vertex="1" parent="VhsP55BZvWKyUML8L4am-5"><mxGeometry width="200" height="20" as="geometry"/></mxCell><mxCell id="VhsP55BZvWKyUML8L4am-7" value="Collaborators" style="shape=partialRectangle;connectable=0;fillColor=#f5f5f5;top=1;left=1;bottom=1;right=1;align=center;spacingLeft=3;fontStyle=1;overflow=hidden;perimeterSpacing=0;strokeWidth=1;labelBorderColor=none;labelBackgroundColor=none;strokeColor=#666666;fontColor=#333333;" vertex="1" parent="VhsP55BZvWKyUML8L4am-5"><mxGeometry x="200" width="160" height="20" as="geometry"/></mxCell><mxCell id="VhsP55BZvWKyUML8L4am-8" value="" style="shape=partialRectangle;collapsible=0;dropTarget=0;pointerEvents=0;fillColor=none;top=0;left=0;bottom=0;right=0;points=[[0,0.5],[1,0.5]];portConstraint=eastwest;" vertex="1" parent="VhsP55BZvWKyUML8L4am-4"><mxGeometry y="50" width="360" height="30" as="geometry"/></mxCell><mxCell id="VhsP55BZvWKyUML8L4am-9" value="some getters ..." style="shape=partialRectangle;connectable=0;fillColor=none;top=0;left=0;bottom=0;right=0;editable=1;overflow=hidden;align=left;spacingLeft=5;" vertex="1" parent="VhsP55BZvWKyUML8L4am-8"><mxGeometry width="200" height="30" as="geometry"/></mxCell><mxCell id="VhsP55BZvWKyUML8L4am-10" value="" style="shape=partialRectangle;connectable=0;fillColor=none;top=0;left=0;bottom=0;right=0;align=left;spacingLeft=5;overflow=hidden;" vertex="1" parent="VhsP55BZvWKyUML8L4am-8"><mxGeometry x="200" width="160" height="30" as="geometry"/></mxCell></root></mxGraphModel></diagram><diagram name="UML-diagram" id="O__73sFNTqiyPwOQqPxf"><mxGraphModel dx="1542" dy="622" grid="1" gridSize="10" guides="1" tooltips="1" connect="1" arrows="1" fold="1" page="1" pageScale="1" pageWidth="1169" pageHeight="1654" math="0" shadow="0"><root><mxCell id="2Bdc6YnVovdCHo61PRhK-0"/><mxCell id="2Bdc6YnVovdCHo61PRhK-1" parent="2Bdc6YnVovdCHo61PRhK-0"/><mxCell id="djUo8o0uJqE1Ero3AfBG-31" value="&lt;span style=&quot;font-size: 20px&quot;&gt;&amp;nbsp;UML Diagram&amp;nbsp;&lt;/span&gt;" style="text;html=1;align=center;verticalAlign=middle;resizable=0;points=[];autosize=1;strokeColor=none;fontSize=13;labelBackgroundColor=none;labelBorderColor=#000000;shadow=1;" vertex="1" parent="2Bdc6YnVovdCHo61PRhK-1"><mxGeometry x="500" y="40" width="150" height="20" as="geometry"/></mxCell><mxCell id="FXX90606XW0j5Z4yTag2-0" value="Bank" style="swimlane;fontStyle=1;align=center;verticalAlign=top;childLayout=stackLayout;horizontal=1;startSize=26;horizontalStack=0;resizeParent=1;resizeParentMax=0;resizeLast=0;collapsible=1;marginBottom=0;rounded=0;shadow=1;labelBackgroundColor=none;fontSize=13;fontColor=#000000;strokeColor=#000000;strokeWidth=1;fillColor=none;gradientColor=none;" vertex="1" parent="2Bdc6YnVovdCHo61PRhK-1"><mxGeometry x="430" y="106" width="290" height="476" as="geometry"/></mxCell><mxCell id="FXX90606XW0j5Z4yTag2-1" value="+ debitPercentRate: double" style="text;strokeColor=none;fillColor=none;align=left;verticalAlign=top;spacingLeft=4;spacingRight=4;overflow=hidden;rotatable=0;points=[[0,0.5],[1,0.5]];portConstraint=eastwest;" vertex="1" parent="FXX90606XW0j5Z4yTag2-0"><mxGeometry y="26" width="290" height="26" as="geometry"/></mxCell><mxCell id="FXX90606XW0j5Z4yTag2-5" value="+ depositePercentRateTable: vector&lt;u_long, doube&gt;" style="text;strokeColor=none;fillColor=none;align=left;verticalAlign=top;spacingLeft=4;spacingRight=4;overflow=hidden;rotatable=0;points=[[0,0.5],[1,0.5]];portConstraint=eastwest;" vertex="1" parent="FXX90606XW0j5Z4yTag2-0"><mxGeometry y="52" width="290" height="26" as="geometry"/></mxCell><mxCell id="FXX90606XW0j5Z4yTag2-6" value="+ creditCommision: double" style="text;strokeColor=none;fillColor=none;align=left;verticalAlign=top;spacingLeft=4;spacingRight=4;overflow=hidden;rotatable=0;points=[[0,0.5],[1,0.5]];portConstraint=eastwest;" vertex="1" parent="FXX90606XW0j5Z4yTag2-0"><mxGeometry y="78" width="290" height="26" as="geometry"/></mxCell><mxCell id="NZ13ZJIi9e9HGPFH8wK1-0" value="+ creditLimit: u_long" style="text;strokeColor=none;fillColor=none;align=left;verticalAlign=top;spacingLeft=4;spacingRight=4;overflow=hidden;rotatable=0;points=[[0,0.5],[1,0.5]];portConstraint=eastwest;" vertex="1" parent="FXX90606XW0j5Z4yTag2-0"><mxGeometry y="104" width="290" height="26" as="geometry"/></mxCell><mxCell id="yrXz3nLEbwzxS0OeAemZ-0" value="+ unverifiedClentLimit: u_long" style="text;strokeColor=none;fillColor=none;align=left;verticalAlign=top;spacingLeft=4;spacingRight=4;overflow=hidden;rotatable=0;points=[[0,0.5],[1,0.5]];portConstraint=eastwest;" vertex="1" parent="FXX90606XW0j5Z4yTag2-0"><mxGeometry y="130" width="290" height="26" as="geometry"/></mxCell><mxCell id="FXX90606XW0j5Z4yTag2-8" value="+ predictor: Predictor" style="text;strokeColor=none;fillColor=none;align=left;verticalAlign=top;spacingLeft=4;spacingRight=4;overflow=hidden;rotatable=0;points=[[0,0.5],[1,0.5]];portConstraint=eastwest;" vertex="1" parent="FXX90606XW0j5Z4yTag2-0"><mxGeometry y="156" width="290" height="26" as="geometry"/></mxCell><mxCell id="s1yUXLH9f4oMo2DDMknP-1" value="+ broker: Broker" style="text;strokeColor=none;fillColor=none;align=left;verticalAlign=top;spacingLeft=4;spacingRight=4;overflow=hidden;rotatable=0;points=[[0,0.5],[1,0.5]];portConstraint=eastwest;" vertex="1" parent="FXX90606XW0j5Z4yTag2-0"><mxGeometry y="182" width="290" height="26" as="geometry"/></mxCell><mxCell id="6uiGhUtG3ZRoV-gSo5pg-8" value="+ accounts: HashMap&lt;u_int account_id, Account*&gt;" style="text;strokeColor=none;fillColor=none;align=left;verticalAlign=top;spacingLeft=4;spacingRight=4;overflow=hidden;rotatable=0;points=[[0,0.5],[1,0.5]];portConstraint=eastwest;" vertex="1" parent="FXX90606XW0j5Z4yTag2-0"><mxGeometry y="208" width="290" height="26" as="geometry"/></mxCell><mxCell id="OZXU76ZqXqFEm9hhJnZB-0" value="+ transactionLog: TransactionKeeper" style="text;strokeColor=none;fillColor=none;align=left;verticalAlign=top;spacingLeft=4;spacingRight=4;overflow=hidden;rotatable=0;points=[[0,0.5],[1,0.5]];portConstraint=eastwest;" vertex="1" parent="FXX90606XW0j5Z4yTag2-0"><mxGeometry y="234" width="290" height="26" as="geometry"/></mxCell><mxCell id="FXX90606XW0j5Z4yTag2-2" value="" style="line;strokeWidth=1;fillColor=none;align=left;verticalAlign=middle;spacingTop=-1;spacingLeft=3;spacingRight=3;rotatable=0;labelPosition=right;points=[];portConstraint=eastwest;" vertex="1" parent="FXX90606XW0j5Z4yTag2-0"><mxGeometry y="260" width="290" height="8" as="geometry"/></mxCell><mxCell id="s1yUXLH9f4oMo2DDMknP-0" value="+ openAccount(AccountType, Client*, ...) (factory)" style="text;strokeColor=none;fillColor=none;align=left;verticalAlign=top;spacingLeft=4;spacingRight=4;overflow=hidden;rotatable=0;points=[[0,0.5],[1,0.5]];portConstraint=eastwest;" vertex="1" parent="FXX90606XW0j5Z4yTag2-0"><mxGeometry y="268" width="290" height="26" as="geometry"/></mxCell><mxCell id="FXX90606XW0j5Z4yTag2-3" value="+ closeAccount(u_int account_id)" style="text;strokeColor=none;fillColor=none;align=left;verticalAlign=top;spacingLeft=4;spacingRight=4;overflow=hidden;rotatable=0;points=[[0,0.5],[1,0.5]];portConstraint=eastwest;" vertex="1" parent="FXX90606XW0j5Z4yTag2-0"><mxGeometry y="294" width="290" height="26" as="geometry"/></mxCell><mxCell id="Ag_yABURIzYnRmgbXdGw-3" value="+ performTransaction(Transaction&amp;): void" style="text;strokeColor=none;fillColor=none;align=left;verticalAlign=top;spacingLeft=4;spacingRight=4;overflow=hidden;rotatable=0;points=[[0,0.5],[1,0.5]];portConstraint=eastwest;" vertex="1" parent="FXX90606XW0j5Z4yTag2-0"><mxGeometry y="320" width="290" height="26" as="geometry"/></mxCell><mxCell id="eUlEvCrdJ5qTa1sASFEH-0" value="+ cancelTransaction(Transaction&amp;): void" style="text;strokeColor=none;fillColor=none;align=left;verticalAlign=top;spacingLeft=4;spacingRight=4;overflow=hidden;rotatable=0;points=[[0,0.5],[1,0.5]];portConstraint=eastwest;" vertex="1" parent="FXX90606XW0j5Z4yTag2-0"><mxGeometry y="346" width="290" height="26" as="geometry"/></mxCell><mxCell id="6cbM5mg3X3sqD0satrKC-0" value="+ dayUpdate(): void" style="text;strokeColor=none;fillColor=none;align=left;verticalAlign=top;spacingLeft=4;spacingRight=4;overflow=hidden;rotatable=0;points=[[0,0.5],[1,0.5]];portConstraint=eastwest;" vertex="1" parent="FXX90606XW0j5Z4yTag2-0"><mxGeometry y="372" width="290" height="26" as="geometry"/></mxCell><mxCell id="SdR4mYrsxZT1ORqQqW_o-2" value="+ monthUpdate(): void" style="text;strokeColor=none;fillColor=none;align=left;verticalAlign=top;spacingLeft=4;spacingRight=4;overflow=hidden;rotatable=0;points=[[0,0.5],[1,0.5]];portConstraint=eastwest;" vertex="1" parent="FXX90606XW0j5Z4yTag2-0"><mxGeometry y="398" width="290" height="26" as="geometry"/></mxCell><mxCell id="czii8kryJXyJcFVCySBC-0" value="+ getStatistic(....): double" style="text;strokeColor=none;fillColor=none;align=left;verticalAlign=top;spacingLeft=4;spacingRight=4;overflow=hidden;rotatable=0;points=[[0,0.5],[1,0.5]];portConstraint=eastwest;" vertex="1" parent="FXX90606XW0j5Z4yTag2-0"><mxGeometry y="424" width="290" height="26" as="geometry"/></mxCell><mxCell id="IGzOpGR2P-d2wWN_NVMZ-0" value="+ getBankBroker(): Broker*" style="text;strokeColor=none;fillColor=none;align=left;verticalAlign=top;spacingLeft=4;spacingRight=4;overflow=hidden;rotatable=0;points=[[0,0.5],[1,0.5]];portConstraint=eastwest;" vertex="1" parent="FXX90606XW0j5Z4yTag2-0"><mxGeometry y="450" width="290" height="26" as="geometry"/></mxCell><mxCell id="IGzOpGR2P-d2wWN_NVMZ-1" value="Client" style="swimlane;fontStyle=1;align=center;verticalAlign=top;childLayout=stackLayout;horizontal=1;startSize=26;horizontalStack=0;resizeParent=1;resizeParentMax=0;resizeLast=0;collapsible=1;marginBottom=0;rounded=0;shadow=1;labelBackgroundColor=none;fontSize=13;fontColor=#000000;strokeColor=#000000;strokeWidth=1;fillColor=none;gradientColor=none;" vertex="1" parent="2Bdc6YnVovdCHo61PRhK-1"><mxGeometry x="705" y="600" width="400" height="412" as="geometry"/></mxCell><mxCell id="IGzOpGR2P-d2wWN_NVMZ-2" value="+ clientID: unsigned int" style="text;strokeColor=none;fillColor=none;align=left;verticalAlign=top;spacingLeft=4;spacingRight=4;overflow=hidden;rotatable=0;points=[[0,0.5],[1,0.5]];portConstraint=eastwest;" vertex="1" parent="IGzOpGR2P-d2wWN_NVMZ-1"><mxGeometry y="26" width="400" height="26" as="geometry"/></mxCell><mxCell id="NZ13ZJIi9e9HGPFH8wK1-2" value="+ accounts: HashMap&lt;u_int account_id, Account*&gt; " style="text;strokeColor=none;fillColor=none;align=left;verticalAlign=top;spacingLeft=4;spacingRight=4;overflow=hidden;rotatable=0;points=[[0,0.5],[1,0.5]];portConstraint=eastwest;" vertex="1" parent="IGzOpGR2P-d2wWN_NVMZ-1"><mxGeometry y="52" width="400" height="26" as="geometry"/></mxCell><mxCell id="IGzOpGR2P-d2wWN_NVMZ-3" value="+ name: string" style="text;strokeColor=none;fillColor=none;align=left;verticalAlign=top;spacingLeft=4;spacingRight=4;overflow=hidden;rotatable=0;points=[[0,0.5],[1,0.5]];portConstraint=eastwest;" vertex="1" parent="IGzOpGR2P-d2wWN_NVMZ-1"><mxGeometry y="78" width="400" height="26" as="geometry"/></mxCell><mxCell id="IGzOpGR2P-d2wWN_NVMZ-4" value="+ surname: string" style="text;strokeColor=none;fillColor=none;align=left;verticalAlign=top;spacingLeft=4;spacingRight=4;overflow=hidden;rotatable=0;points=[[0,0.5],[1,0.5]];portConstraint=eastwest;" vertex="1" parent="IGzOpGR2P-d2wWN_NVMZ-1"><mxGeometry y="104" width="400" height="26" as="geometry"/></mxCell><mxCell id="IGzOpGR2P-d2wWN_NVMZ-5" value="+ adress: Adress" style="text;strokeColor=none;fillColor=none;align=left;verticalAlign=top;spacingLeft=4;spacingRight=4;overflow=hidden;rotatable=0;points=[[0,0.5],[1,0.5]];portConstraint=eastwest;" vertex="1" parent="IGzOpGR2P-d2wWN_NVMZ-1"><mxGeometry y="130" width="400" height="26" as="geometry"/></mxCell><mxCell id="IGzOpGR2P-d2wWN_NVMZ-6" value="+ pasportNum: string" style="text;strokeColor=none;fillColor=none;align=left;verticalAlign=top;spacingLeft=4;spacingRight=4;overflow=hidden;rotatable=0;points=[[0,0.5],[1,0.5]];portConstraint=eastwest;" vertex="1" parent="IGzOpGR2P-d2wWN_NVMZ-1"><mxGeometry y="156" width="400" height="26" as="geometry"/></mxCell><mxCell id="QMBPM834SuGDdXQ2XlvU-0" value="+ isVerified: bool" style="text;strokeColor=none;fillColor=none;align=left;verticalAlign=top;spacingLeft=4;spacingRight=4;overflow=hidden;rotatable=0;points=[[0,0.5],[1,0.5]];portConstraint=eastwest;" vertex="1" parent="IGzOpGR2P-d2wWN_NVMZ-1"><mxGeometry y="182" width="400" height="26" as="geometry"/></mxCell><mxCell id="IGzOpGR2P-d2wWN_NVMZ-7" value="" style="line;strokeWidth=1;fillColor=none;align=left;verticalAlign=middle;spacingTop=-1;spacingLeft=3;spacingRight=3;rotatable=0;labelPosition=right;points=[];portConstraint=eastwest;" vertex="1" parent="IGzOpGR2P-d2wWN_NVMZ-1"><mxGeometry y="208" width="400" height="8" as="geometry"/></mxCell><mxCell id="IGzOpGR2P-d2wWN_NVMZ-8" value="+ openAccount(Bank&amp;, AccountType, Client* this, ...): void" style="text;strokeColor=none;fillColor=none;align=left;verticalAlign=top;spacingLeft=4;spacingRight=4;overflow=hidden;rotatable=0;points=[[0,0.5],[1,0.5]];portConstraint=eastwest;" vertex="1" parent="IGzOpGR2P-d2wWN_NVMZ-1"><mxGeometry y="216" width="400" height="26" as="geometry"/></mxCell><mxCell id="IGzOpGR2P-d2wWN_NVMZ-9" value="+ closeAccount(u_int account_id): bool (false if credit account with debt)" style="text;strokeColor=none;fillColor=none;align=left;verticalAlign=top;spacingLeft=4;spacingRight=4;overflow=hidden;rotatable=0;points=[[0,0.5],[1,0.5]];portConstraint=eastwest;" vertex="1" parent="IGzOpGR2P-d2wWN_NVMZ-1"><mxGeometry y="242" width="400" height="26" as="geometry"/></mxCell><mxCell id="oCP29aD_IBQwHy5LpEHJ-1" value="+ withdrawMoney(u_int source_account_id, u_long value): bool" style="text;strokeColor=none;fillColor=none;align=left;verticalAlign=top;spacingLeft=4;spacingRight=4;overflow=hidden;rotatable=0;points=[[0,0.5],[1,0.5]];portConstraint=eastwest;" vertex="1" parent="IGzOpGR2P-d2wWN_NVMZ-1"><mxGeometry y="268" width="400" height="28" as="geometry"/></mxCell><mxCell id="oCP29aD_IBQwHy5LpEHJ-2" value="+ transferMoney(u_int s_acc_id, u_int t_acc_id, u_long value): bool" style="text;strokeColor=none;fillColor=none;align=left;verticalAlign=top;spacingLeft=4;spacingRight=4;overflow=hidden;rotatable=0;points=[[0,0.5],[1,0.5]];portConstraint=eastwest;" vertex="1" parent="IGzOpGR2P-d2wWN_NVMZ-1"><mxGeometry y="296" width="400" height="28" as="geometry"/></mxCell><mxCell id="IGzOpGR2P-d2wWN_NVMZ-10" value="+ contributeMoney(u_int target_account_id, u_long value): bool" style="text;strokeColor=none;fillColor=none;align=left;verticalAlign=top;spacingLeft=4;spacingRight=4;overflow=hidden;rotatable=0;points=[[0,0.5],[1,0.5]];portConstraint=eastwest;" vertex="1" parent="IGzOpGR2P-d2wWN_NVMZ-1"><mxGeometry y="324" width="400" height="28" as="geometry"/></mxCell><mxCell id="bDoDRBB7HFnbV5PoUJ6u-0" value="&lt;span style=&quot;color: rgb(0 , 0 , 0) ; font-family: &amp;#34;helvetica&amp;#34; ; font-size: 12px ; font-style: normal ; font-weight: 400 ; letter-spacing: normal ; text-align: left ; text-indent: 0px ; text-transform: none ; word-spacing: 0px ; background-color: rgb(248 , 249 , 250) ; display: inline ; float: none&quot;&gt;+ isVerify(): bool (true if exist&amp;nbsp;address and passportNum)&lt;/span&gt;" style="text;whiteSpace=wrap;html=1;fontSize=13;fontColor=#000000;" vertex="1" parent="IGzOpGR2P-d2wWN_NVMZ-1"><mxGeometry y="352" width="400" height="30" as="geometry"/></mxCell><mxCell id="wRWI9gJkVJSpUNKJmzNk-0" value="&lt;span style=&quot;color: rgb(0 , 0 , 0) ; font-family: &amp;#34;helvetica&amp;#34; ; font-size: 12px ; font-style: normal ; font-weight: 400 ; letter-spacing: normal ; text-align: left ; text-indent: 0px ; text-transform: none ; word-spacing: 0px ; background-color: rgb(248 , 249 , 250) ; display: inline ; float: none&quot;&gt;+ some getters and setters ...&lt;/span&gt;" style="text;whiteSpace=wrap;html=1;fontSize=13;fontColor=#000000;" vertex="1" parent="IGzOpGR2P-d2wWN_NVMZ-1"><mxGeometry y="382" width="400" height="30" as="geometry"/></mxCell><mxCell id="QMBPM834SuGDdXQ2XlvU-2" value="Address" style="swimlane;fontStyle=1;align=center;verticalAlign=top;childLayout=stackLayout;horizontal=1;startSize=26;horizontalStack=0;resizeParent=1;resizeParentMax=0;resizeLast=0;collapsible=1;marginBottom=0;rounded=0;shadow=1;labelBackgroundColor=none;fontSize=13;fontColor=#000000;strokeColor=#000000;strokeWidth=1;fillColor=none;gradientColor=none;" vertex="1" parent="2Bdc6YnVovdCHo61PRhK-1"><mxGeometry x="610" y="1040" width="160" height="164" as="geometry"/></mxCell><mxCell id="QMBPM834SuGDdXQ2XlvU-3" value="+ city: string" style="text;strokeColor=none;fillColor=none;align=left;verticalAlign=top;spacingLeft=4;spacingRight=4;overflow=hidden;rotatable=0;points=[[0,0.5],[1,0.5]];portConstraint=eastwest;" vertex="1" parent="QMBPM834SuGDdXQ2XlvU-2"><mxGeometry y="26" width="160" height="26" as="geometry"/></mxCell><mxCell id="QMBPM834SuGDdXQ2XlvU-4" value="+ street: string" style="text;strokeColor=none;fillColor=none;align=left;verticalAlign=top;spacingLeft=4;spacingRight=4;overflow=hidden;rotatable=0;points=[[0,0.5],[1,0.5]];portConstraint=eastwest;" vertex="1" parent="QMBPM834SuGDdXQ2XlvU-2"><mxGeometry y="52" width="160" height="26" as="geometry"/></mxCell><mxCell id="QMBPM834SuGDdXQ2XlvU-5" value="+ house: u_int" style="text;strokeColor=none;fillColor=none;align=left;verticalAlign=top;spacingLeft=4;spacingRight=4;overflow=hidden;rotatable=0;points=[[0,0.5],[1,0.5]];portConstraint=eastwest;" vertex="1" parent="QMBPM834SuGDdXQ2XlvU-2"><mxGeometry y="78" width="160" height="26" as="geometry"/></mxCell><mxCell id="QMBPM834SuGDdXQ2XlvU-6" value="+ apartment: u_int" style="text;strokeColor=none;fillColor=none;align=left;verticalAlign=top;spacingLeft=4;spacingRight=4;overflow=hidden;rotatable=0;points=[[0,0.5],[1,0.5]];portConstraint=eastwest;" vertex="1" parent="QMBPM834SuGDdXQ2XlvU-2"><mxGeometry y="104" width="160" height="26" as="geometry"/></mxCell><mxCell id="QMBPM834SuGDdXQ2XlvU-8" value="" style="line;strokeWidth=1;fillColor=none;align=left;verticalAlign=middle;spacingTop=-1;spacingLeft=3;spacingRight=3;rotatable=0;labelPosition=right;points=[];portConstraint=eastwest;" vertex="1" parent="QMBPM834SuGDdXQ2XlvU-2"><mxGeometry y="130" width="160" height="8" as="geometry"/></mxCell><mxCell id="QMBPM834SuGDdXQ2XlvU-10" value="some getters by necessity ..." style="text;strokeColor=none;fillColor=none;align=left;verticalAlign=top;spacingLeft=4;spacingRight=4;overflow=hidden;rotatable=0;points=[[0,0.5],[1,0.5]];portConstraint=eastwest;" vertex="1" parent="QMBPM834SuGDdXQ2XlvU-2"><mxGeometry y="138" width="160" height="26" as="geometry"/></mxCell><mxCell id="3R_Z55bkKTLyewZKKzUq-0" value="Account" style="swimlane;fontStyle=1;align=center;verticalAlign=top;childLayout=stackLayout;horizontal=1;startSize=26;horizontalStack=0;resizeParent=1;resizeParentMax=0;resizeLast=0;collapsible=1;marginBottom=0;rounded=0;shadow=1;labelBackgroundColor=none;fontSize=13;fontColor=#000000;strokeColor=#000000;strokeWidth=1;fillColor=none;gradientColor=none;" vertex="1" parent="2Bdc6YnVovdCHo61PRhK-1"><mxGeometry x="180" y="620" width="280" height="164" as="geometry"/></mxCell><mxCell id="3R_Z55bkKTLyewZKKzUq-1" value="+ accountID: long" style="text;strokeColor=none;fillColor=none;align=left;verticalAlign=top;spacingLeft=4;spacingRight=4;overflow=hidden;rotatable=0;points=[[0,0.5],[1,0.5]];portConstraint=eastwest;" vertex="1" parent="3R_Z55bkKTLyewZKKzUq-0"><mxGeometry y="26" width="280" height="26" as="geometry"/></mxCell><mxCell id="oCP29aD_IBQwHy5LpEHJ-3" value="+ currentValue: long" style="text;strokeColor=none;fillColor=none;align=left;verticalAlign=top;spacingLeft=4;spacingRight=4;overflow=hidden;rotatable=0;points=[[0,0.5],[1,0.5]];portConstraint=eastwest;" vertex="1" parent="3R_Z55bkKTLyewZKKzUq-0"><mxGeometry y="52" width="280" height="26" as="geometry"/></mxCell><mxCell id="I9rqsSnxbjMd61ftA0Cp-18" value="+ client: Client*" style="text;strokeColor=none;fillColor=none;align=left;verticalAlign=top;spacingLeft=4;spacingRight=4;overflow=hidden;rotatable=0;points=[[0,0.5],[1,0.5]];portConstraint=eastwest;" vertex="1" parent="3R_Z55bkKTLyewZKKzUq-0"><mxGeometry y="78" width="280" height="26" as="geometry"/></mxCell><mxCell id="I9rqsSnxbjMd61ftA0Cp-19" value="+ bank: Bank*" style="text;strokeColor=none;fillColor=none;align=left;verticalAlign=top;spacingLeft=4;spacingRight=4;overflow=hidden;rotatable=0;points=[[0,0.5],[1,0.5]];portConstraint=eastwest;" vertex="1" parent="3R_Z55bkKTLyewZKKzUq-0"><mxGeometry y="104" width="280" height="26" as="geometry"/></mxCell><mxCell id="3R_Z55bkKTLyewZKKzUq-6" value="" style="line;strokeWidth=1;fillColor=none;align=left;verticalAlign=middle;spacingTop=-1;spacingLeft=3;spacingRight=3;rotatable=0;labelPosition=right;points=[];portConstraint=eastwest;" vertex="1" parent="3R_Z55bkKTLyewZKKzUq-0"><mxGeometry y="130" width="280" height="8" as="geometry"/></mxCell><mxCell id="3R_Z55bkKTLyewZKKzUq-7" value="+ getCurrentValue(): long" style="text;strokeColor=none;fillColor=none;align=left;verticalAlign=top;spacingLeft=4;spacingRight=4;overflow=hidden;rotatable=0;points=[[0,0.5],[1,0.5]];portConstraint=eastwest;" vertex="1" parent="3R_Z55bkKTLyewZKKzUq-0"><mxGeometry y="138" width="280" height="26" as="geometry"/></mxCell><mxCell id="ErgtKU5s-MnpChiRrcos-0" value="Debit Account" style="swimlane;fontStyle=1;align=center;verticalAlign=top;childLayout=stackLayout;horizontal=1;startSize=26;horizontalStack=0;resizeParent=1;resizeParentMax=0;resizeLast=0;collapsible=1;marginBottom=0;rounded=0;shadow=1;labelBackgroundColor=none;fontSize=13;fontColor=#000000;strokeColor=#000000;strokeWidth=1;fillColor=none;gradientColor=none;" vertex="1" parent="2Bdc6YnVovdCHo61PRhK-1"><mxGeometry x="20" y="860" width="160" height="110" as="geometry"/></mxCell><mxCell id="ErgtKU5s-MnpChiRrcos-9" value="+ debitPercentRate: double" style="text;strokeColor=none;fillColor=none;align=left;verticalAlign=top;spacingLeft=4;spacingRight=4;overflow=hidden;rotatable=0;points=[[0,0.5],[1,0.5]];portConstraint=eastwest;" vertex="1" parent="ErgtKU5s-MnpChiRrcos-0"><mxGeometry y="26" width="160" height="26" as="geometry"/></mxCell><mxCell id="ErgtKU5s-MnpChiRrcos-1" value="+ accumulatedValue: long" style="text;strokeColor=none;fillColor=none;align=left;verticalAlign=top;spacingLeft=4;spacingRight=4;overflow=hidden;rotatable=0;points=[[0,0.5],[1,0.5]];portConstraint=eastwest;" vertex="1" parent="ErgtKU5s-MnpChiRrcos-0"><mxGeometry y="52" width="160" height="26" as="geometry"/></mxCell><mxCell id="ErgtKU5s-MnpChiRrcos-4" value="" style="line;strokeWidth=1;fillColor=none;align=left;verticalAlign=middle;spacingTop=-1;spacingLeft=3;spacingRight=3;rotatable=0;labelPosition=right;points=[];portConstraint=eastwest;" vertex="1" parent="ErgtKU5s-MnpChiRrcos-0"><mxGeometry y="78" width="160" height="8" as="geometry"/></mxCell><mxCell id="s1yUXLH9f4oMo2DDMknP-4" value="+ getAccumValue(): long" style="text;strokeColor=none;fillColor=none;align=left;verticalAlign=top;spacingLeft=4;spacingRight=4;overflow=hidden;rotatable=0;points=[[0,0.5],[1,0.5]];portConstraint=eastwest;" vertex="1" parent="ErgtKU5s-MnpChiRrcos-0"><mxGeometry y="86" width="160" height="24" as="geometry"/></mxCell><mxCell id="6uiGhUtG3ZRoV-gSo5pg-0" value="Deposite Account" style="swimlane;fontStyle=1;align=center;verticalAlign=top;childLayout=stackLayout;horizontal=1;startSize=26;horizontalStack=0;resizeParent=1;resizeParentMax=0;resizeLast=0;collapsible=1;marginBottom=0;rounded=0;shadow=1;labelBackgroundColor=none;fontSize=13;fontColor=#000000;strokeColor=#000000;strokeWidth=1;fillColor=none;gradientColor=none;" vertex="1" parent="2Bdc6YnVovdCHo61PRhK-1"><mxGeometry x="215" y="860" width="185" height="136" as="geometry"/></mxCell><mxCell id="6uiGhUtG3ZRoV-gSo5pg-9" value="+ depositePercentRate: double" style="text;strokeColor=none;fillColor=none;align=left;verticalAlign=top;spacingLeft=4;spacingRight=4;overflow=hidden;rotatable=0;points=[[0,0.5],[1,0.5]];portConstraint=eastwest;" vertex="1" parent="6uiGhUtG3ZRoV-gSo5pg-0"><mxGeometry y="26" width="185" height="26" as="geometry"/></mxCell><mxCell id="6uiGhUtG3ZRoV-gSo5pg-1" value="+ accumulatedValue: double" style="text;strokeColor=none;fillColor=none;align=left;verticalAlign=top;spacingLeft=4;spacingRight=4;overflow=hidden;rotatable=0;points=[[0,0.5],[1,0.5]];portConstraint=eastwest;" vertex="1" parent="6uiGhUtG3ZRoV-gSo5pg-0"><mxGeometry y="52" width="185" height="26" as="geometry"/></mxCell><mxCell id="6uiGhUtG3ZRoV-gSo5pg-2" value="+ finishData: DataType" style="text;strokeColor=none;fillColor=none;align=left;verticalAlign=top;spacingLeft=4;spacingRight=4;overflow=hidden;rotatable=0;points=[[0,0.5],[1,0.5]];portConstraint=eastwest;" vertex="1" parent="6uiGhUtG3ZRoV-gSo5pg-0"><mxGeometry y="78" width="185" height="26" as="geometry"/></mxCell><mxCell id="6uiGhUtG3ZRoV-gSo5pg-3" value="" style="line;strokeWidth=1;fillColor=none;align=left;verticalAlign=middle;spacingTop=-1;spacingLeft=3;spacingRight=3;rotatable=0;labelPosition=right;points=[];portConstraint=eastwest;" vertex="1" parent="6uiGhUtG3ZRoV-gSo5pg-0"><mxGeometry y="104" width="185" height="8" as="geometry"/></mxCell><mxCell id="s1yUXLH9f4oMo2DDMknP-5" value="+ getAccumValue(): long" style="text;strokeColor=none;fillColor=none;align=left;verticalAlign=top;spacingLeft=4;spacingRight=4;overflow=hidden;rotatable=0;points=[[0,0.5],[1,0.5]];portConstraint=eastwest;" vertex="1" parent="6uiGhUtG3ZRoV-gSo5pg-0"><mxGeometry y="112" width="185" height="24" as="geometry"/></mxCell><mxCell id="6uiGhUtG3ZRoV-gSo5pg-4" value="Credit Account" style="swimlane;fontStyle=1;align=center;verticalAlign=top;childLayout=stackLayout;horizontal=1;startSize=26;horizontalStack=0;resizeParent=1;resizeParentMax=0;resizeLast=0;collapsible=1;marginBottom=0;rounded=0;shadow=1;labelBackgroundColor=none;fontSize=13;fontColor=#000000;strokeColor=#000000;strokeWidth=1;fillColor=none;gradientColor=none;" vertex="1" parent="2Bdc6YnVovdCHo61PRhK-1"><mxGeometry x="440" y="860" width="160" height="86" as="geometry"/></mxCell><mxCell id="6uiGhUtG3ZRoV-gSo5pg-5" value="+ creditLimit: long" style="text;strokeColor=none;fillColor=none;align=left;verticalAlign=top;spacingLeft=4;spacingRight=4;overflow=hidden;rotatable=0;points=[[0,0.5],[1,0.5]];portConstraint=eastwest;" vertex="1" parent="6uiGhUtG3ZRoV-gSo5pg-4"><mxGeometry y="26" width="160" height="26" as="geometry"/></mxCell><mxCell id="6uiGhUtG3ZRoV-gSo5pg-6" value="+ creditCommision: double" style="text;strokeColor=none;fillColor=none;align=left;verticalAlign=top;spacingLeft=4;spacingRight=4;overflow=hidden;rotatable=0;points=[[0,0.5],[1,0.5]];portConstraint=eastwest;" vertex="1" parent="6uiGhUtG3ZRoV-gSo5pg-4"><mxGeometry y="52" width="160" height="26" as="geometry"/></mxCell><mxCell id="6uiGhUtG3ZRoV-gSo5pg-7" value="" style="line;strokeWidth=1;fillColor=none;align=left;verticalAlign=middle;spacingTop=-1;spacingLeft=3;spacingRight=3;rotatable=0;labelPosition=right;points=[];portConstraint=eastwest;" vertex="1" parent="6uiGhUtG3ZRoV-gSo5pg-4"><mxGeometry y="78" width="160" height="8" as="geometry"/></mxCell><mxCell id="gW-BV8-37elRxptsRWSa-0" value="" style="endArrow=block;dashed=1;endFill=0;endSize=12;html=1;fontSize=13;fontColor=#000000;exitX=0.5;exitY=0;exitDx=0;exitDy=0;entryX=0.163;entryY=1;entryDx=0;entryDy=0;entryPerimeter=0;" edge="1" parent="2Bdc6YnVovdCHo61PRhK-1" target="3R_Z55bkKTLyewZKKzUq-7"><mxGeometry width="160" relative="1" as="geometry"><mxPoint x="100" y="859.9999999999998" as="sourcePoint"/><mxPoint x="270" y="740" as="targetPoint"/></mxGeometry></mxCell><mxCell id="gW-BV8-37elRxptsRWSa-1" value="" style="endArrow=block;dashed=1;endFill=0;endSize=12;html=1;fontSize=13;fontColor=#000000;exitX=0.5;exitY=0;exitDx=0;exitDy=0;" edge="1" parent="2Bdc6YnVovdCHo61PRhK-1" source="6uiGhUtG3ZRoV-gSo5pg-0"><mxGeometry width="160" relative="1" as="geometry"><mxPoint x="30" y="810" as="sourcePoint"/><mxPoint x="308" y="790" as="targetPoint"/></mxGeometry></mxCell><mxCell id="gW-BV8-37elRxptsRWSa-4" value="" style="endArrow=block;dashed=1;endFill=0;endSize=12;html=1;fontSize=13;fontColor=#000000;exitX=0.5;exitY=0;exitDx=0;exitDy=0;" edge="1" parent="2Bdc6YnVovdCHo61PRhK-1" source="6uiGhUtG3ZRoV-gSo5pg-4"><mxGeometry width="160" relative="1" as="geometry"><mxPoint x="520" y="807" as="sourcePoint"/><mxPoint x="420" y="790" as="targetPoint"/></mxGeometry></mxCell><mxCell id="bDoDRBB7HFnbV5PoUJ6u-3" value="Broker" style="swimlane;fontStyle=1;align=center;verticalAlign=top;childLayout=stackLayout;horizontal=1;startSize=26;horizontalStack=0;resizeParent=1;resizeParentMax=0;resizeLast=0;collapsible=1;marginBottom=0;rounded=0;shadow=1;labelBackgroundColor=none;fontSize=13;fontColor=#000000;strokeColor=#000000;strokeWidth=1;fillColor=none;gradientColor=none;" vertex="1" parent="2Bdc6YnVovdCHo61PRhK-1"><mxGeometry x="50" y="330" width="230" height="118" as="geometry"/></mxCell><mxCell id="bDoDRBB7HFnbV5PoUJ6u-8" value="" style="line;strokeWidth=1;fillColor=none;align=left;verticalAlign=middle;spacingTop=-1;spacingLeft=3;spacingRight=3;rotatable=0;labelPosition=right;points=[];portConstraint=eastwest;" vertex="1" parent="bDoDRBB7HFnbV5PoUJ6u-3"><mxGeometry y="26" width="230" height="8" as="geometry"/></mxCell><mxCell id="bDoDRBB7HFnbV5PoUJ6u-11" value="+ withdrawMoney(...): bool (success)" style="text;strokeColor=none;fillColor=none;align=left;verticalAlign=top;spacingLeft=4;spacingRight=4;overflow=hidden;rotatable=0;points=[[0,0.5],[1,0.5]];portConstraint=eastwest;" vertex="1" parent="bDoDRBB7HFnbV5PoUJ6u-3"><mxGeometry y="34" width="230" height="28" as="geometry"/></mxCell><mxCell id="bDoDRBB7HFnbV5PoUJ6u-12" value="+ transferMoney(...): bool" style="text;strokeColor=none;fillColor=none;align=left;verticalAlign=top;spacingLeft=4;spacingRight=4;overflow=hidden;rotatable=0;points=[[0,0.5],[1,0.5]];portConstraint=eastwest;" vertex="1" parent="bDoDRBB7HFnbV5PoUJ6u-3"><mxGeometry y="62" width="230" height="28" as="geometry"/></mxCell><mxCell id="bDoDRBB7HFnbV5PoUJ6u-13" value="+ contributeMoney(...): bool" style="text;strokeColor=none;fillColor=none;align=left;verticalAlign=top;spacingLeft=4;spacingRight=4;overflow=hidden;rotatable=0;points=[[0,0.5],[1,0.5]];portConstraint=eastwest;" vertex="1" parent="bDoDRBB7HFnbV5PoUJ6u-3"><mxGeometry y="90" width="230" height="28" as="geometry"/></mxCell><mxCell id="bDoDRBB7HFnbV5PoUJ6u-14" value="Predictor" style="swimlane;fontStyle=1;align=center;verticalAlign=top;childLayout=stackLayout;horizontal=1;startSize=26;horizontalStack=0;resizeParent=1;resizeParentMax=0;resizeLast=0;collapsible=1;marginBottom=0;rounded=0;shadow=1;labelBackgroundColor=none;fontSize=13;fontColor=#000000;strokeColor=#000000;strokeWidth=1;fillColor=none;gradientColor=none;" vertex="1" parent="2Bdc6YnVovdCHo61PRhK-1"><mxGeometry x="165" y="140" width="210" height="114" as="geometry"/></mxCell><mxCell id="bDoDRBB7HFnbV5PoUJ6u-15" value="+ bankPtr: Bank*" style="text;strokeColor=none;fillColor=none;align=left;verticalAlign=top;spacingLeft=4;spacingRight=4;overflow=hidden;rotatable=0;points=[[0,0.5],[1,0.5]];portConstraint=eastwest;" vertex="1" parent="bDoDRBB7HFnbV5PoUJ6u-14"><mxGeometry y="26" width="210" height="26" as="geometry"/></mxCell><mxCell id="bDoDRBB7HFnbV5PoUJ6u-16" value="" style="line;strokeWidth=1;fillColor=none;align=left;verticalAlign=middle;spacingTop=-1;spacingLeft=3;spacingRight=3;rotatable=0;labelPosition=right;points=[];portConstraint=eastwest;" vertex="1" parent="bDoDRBB7HFnbV5PoUJ6u-14"><mxGeometry y="52" width="210" height="8" as="geometry"/></mxCell><mxCell id="bDoDRBB7HFnbV5PoUJ6u-17" value="+ getStatistic(DateType): u_long" style="text;strokeColor=none;fillColor=none;align=left;verticalAlign=top;spacingLeft=4;spacingRight=4;overflow=hidden;rotatable=0;points=[[0,0.5],[1,0.5]];portConstraint=eastwest;" vertex="1" parent="bDoDRBB7HFnbV5PoUJ6u-14"><mxGeometry y="60" width="210" height="28" as="geometry"/></mxCell><mxCell id="bDoDRBB7HFnbV5PoUJ6u-20" value="other statistic calculating ..." style="text;strokeColor=none;fillColor=none;align=left;verticalAlign=top;spacingLeft=4;spacingRight=4;overflow=hidden;rotatable=0;points=[[0,0.5],[1,0.5]];portConstraint=eastwest;" vertex="1" parent="bDoDRBB7HFnbV5PoUJ6u-14"><mxGeometry y="88" width="210" height="26" as="geometry"/></mxCell><mxCell id="bDoDRBB7HFnbV5PoUJ6u-21" style="edgeStyle=orthogonalEdgeStyle;rounded=0;orthogonalLoop=1;jettySize=auto;html=1;entryX=0.5;entryY=0;entryDx=0;entryDy=0;fontSize=13;fontColor=#000000;" edge="1" parent="2Bdc6YnVovdCHo61PRhK-1" source="FXX90606XW0j5Z4yTag2-8" target="bDoDRBB7HFnbV5PoUJ6u-14"><mxGeometry relative="1" as="geometry"/></mxCell><mxCell id="s1yUXLH9f4oMo2DDMknP-15" style="edgeStyle=orthogonalEdgeStyle;rounded=0;orthogonalLoop=1;jettySize=auto;html=1;entryX=0.5;entryY=0;entryDx=0;entryDy=0;fontSize=13;fontColor=#000000;" edge="1" parent="2Bdc6YnVovdCHo61PRhK-1" source="NZ13ZJIi9e9HGPFH8wK1-2" target="3R_Z55bkKTLyewZKKzUq-0"><mxGeometry relative="1" as="geometry"/></mxCell><mxCell id="I9rqsSnxbjMd61ftA0Cp-2" style="edgeStyle=orthogonalEdgeStyle;rounded=0;orthogonalLoop=1;jettySize=auto;html=1;exitX=0;exitY=0.5;exitDx=0;exitDy=0;entryX=0.5;entryY=0;entryDx=0;entryDy=0;fontSize=13;fontColor=#000000;" edge="1" parent="2Bdc6YnVovdCHo61PRhK-1" source="6uiGhUtG3ZRoV-gSo5pg-8" target="3R_Z55bkKTLyewZKKzUq-0"><mxGeometry relative="1" as="geometry"/></mxCell><mxCell id="SdR4mYrsxZT1ORqQqW_o-0" style="edgeStyle=orthogonalEdgeStyle;rounded=0;orthogonalLoop=1;jettySize=auto;html=1;entryX=0.5;entryY=0;entryDx=0;entryDy=0;fontSize=13;fontColor=#000000;strokeWidth=1;" edge="1" parent="2Bdc6YnVovdCHo61PRhK-1" source="s1yUXLH9f4oMo2DDMknP-1" target="bDoDRBB7HFnbV5PoUJ6u-3"><mxGeometry relative="1" as="geometry"/></mxCell><mxCell id="SdR4mYrsxZT1ORqQqW_o-12" style="edgeStyle=orthogonalEdgeStyle;rounded=0;orthogonalLoop=1;jettySize=auto;html=1;fontSize=13;fontColor=#000000;strokeWidth=1;" edge="1" parent="2Bdc6YnVovdCHo61PRhK-1" source="IGzOpGR2P-d2wWN_NVMZ-5"><mxGeometry relative="1" as="geometry"><mxPoint x="685" y="1040" as="targetPoint"/></mxGeometry></mxCell><mxCell id="NEF8COtfJUBoHxIc8wZ7-8" value="TransactionKeeper" style="swimlane;fontStyle=1;align=center;verticalAlign=top;childLayout=stackLayout;horizontal=1;startSize=26;horizontalStack=0;resizeParent=1;resizeParentMax=0;resizeLast=0;collapsible=1;marginBottom=0;rounded=0;shadow=1;labelBackgroundColor=none;fontSize=13;fontColor=#000000;strokeColor=#000000;strokeWidth=1;fillColor=none;gradientColor=none;" vertex="1" parent="2Bdc6YnVovdCHo61PRhK-1"><mxGeometry x="730" y="390" width="420" height="140" as="geometry"/></mxCell><mxCell id="NEF8COtfJUBoHxIc8wZ7-9" value="+ transactionList: list&lt;Transaction&gt;" style="text;strokeColor=none;fillColor=none;align=left;verticalAlign=top;spacingLeft=4;spacingRight=4;overflow=hidden;rotatable=0;points=[[0,0.5],[1,0.5]];portConstraint=eastwest;" vertex="1" parent="NEF8COtfJUBoHxIc8wZ7-8"><mxGeometry y="26" width="420" height="26" as="geometry"/></mxCell><mxCell id="NEF8COtfJUBoHxIc8wZ7-13" value="+ userTransactions: HashMap&lt;u_int client_id, Queue&lt;list&lt;Transaction&gt;*&gt;&gt;" style="text;strokeColor=none;fillColor=none;align=left;verticalAlign=top;spacingLeft=4;spacingRight=4;overflow=hidden;rotatable=0;points=[[0,0.5],[1,0.5]];portConstraint=eastwest;" vertex="1" parent="NEF8COtfJUBoHxIc8wZ7-8"><mxGeometry y="52" width="420" height="26" as="geometry"/></mxCell><mxCell id="Ag_yABURIzYnRmgbXdGw-1" value="+ bankPtr: Bank*" style="text;strokeColor=none;fillColor=none;align=left;verticalAlign=top;spacingLeft=4;spacingRight=4;overflow=hidden;rotatable=0;points=[[0,0.5],[1,0.5]];portConstraint=eastwest;" vertex="1" parent="NEF8COtfJUBoHxIc8wZ7-8"><mxGeometry y="78" width="420" height="26" as="geometry"/></mxCell><mxCell id="NEF8COtfJUBoHxIc8wZ7-10" value="" style="line;strokeWidth=1;fillColor=none;align=left;verticalAlign=middle;spacingTop=-1;spacingLeft=3;spacingRight=3;rotatable=0;labelPosition=right;points=[];portConstraint=eastwest;" vertex="1" parent="NEF8COtfJUBoHxIc8wZ7-8"><mxGeometry y="104" width="420" height="8" as="geometry"/></mxCell><mxCell id="NEF8COtfJUBoHxIc8wZ7-11" value="+ cancelClientTransactions(u_int user_id, DataType from): bool" style="text;strokeColor=none;fillColor=none;align=left;verticalAlign=top;spacingLeft=4;spacingRight=4;overflow=hidden;rotatable=0;points=[[0,0.5],[1,0.5]];portConstraint=eastwest;" vertex="1" parent="NEF8COtfJUBoHxIc8wZ7-8"><mxGeometry y="112" width="420" height="28" as="geometry"/></mxCell><mxCell id="NEF8COtfJUBoHxIc8wZ7-14" style="edgeStyle=orthogonalEdgeStyle;rounded=0;orthogonalLoop=1;jettySize=auto;html=1;entryX=0.5;entryY=0;entryDx=0;entryDy=0;fontSize=13;fontColor=#000000;strokeWidth=1;" edge="1" parent="2Bdc6YnVovdCHo61PRhK-1" source="OZXU76ZqXqFEm9hhJnZB-0" target="NEF8COtfJUBoHxIc8wZ7-8"><mxGeometry relative="1" as="geometry"/></mxCell><mxCell id="-VodoKyR2wJJUR4TgwIR-2" value="Broker по данным ему данным&amp;nbsp;&lt;br&gt;составляет транзакции и &lt;br&gt;передаёт их банкам" style="text;html=1;align=center;verticalAlign=middle;resizable=0;points=[];autosize=1;strokeColor=none;fontSize=13;fontColor=#000000;" vertex="1" parent="2Bdc6YnVovdCHo61PRhK-1"><mxGeometry x="65" y="480" width="200" height="50" as="geometry"/></mxCell><mxCell id="-VodoKyR2wJJUR4TgwIR-3" value="" style="ellipse;whiteSpace=wrap;html=1;rounded=0;shadow=1;labelBackgroundColor=none;fontSize=13;fontColor=#000000;strokeColor=#000000;strokeWidth=2;fillColor=none;gradientColor=none;align=left;" vertex="1" parent="2Bdc6YnVovdCHo61PRhK-1"><mxGeometry x="56.25" y="460" width="217.5" height="85" as="geometry"/></mxCell><mxCell id="-VodoKyR2wJJUR4TgwIR-6" value="Transaction" style="swimlane;fontStyle=1;align=center;verticalAlign=top;childLayout=stackLayout;horizontal=1;startSize=26;horizontalStack=0;resizeParent=1;resizeParentMax=0;resizeLast=0;collapsible=1;marginBottom=0;rounded=0;shadow=1;labelBackgroundColor=none;fontSize=13;fontColor=#000000;strokeColor=#000000;strokeWidth=1;fillColor=none;gradientColor=none;" vertex="1" parent="2Bdc6YnVovdCHo61PRhK-1"><mxGeometry x="820" y="140" width="230" height="164" as="geometry"/></mxCell><mxCell id="-VodoKyR2wJJUR4TgwIR-7" value="+ clientID: u_int" style="text;strokeColor=none;fillColor=none;align=left;verticalAlign=top;spacingLeft=4;spacingRight=4;overflow=hidden;rotatable=0;points=[[0,0.5],[1,0.5]];portConstraint=eastwest;" vertex="1" parent="-VodoKyR2wJJUR4TgwIR-6"><mxGeometry y="26" width="230" height="26" as="geometry"/></mxCell><mxCell id="-VodoKyR2wJJUR4TgwIR-8" value="+ source_account_id: u_int" style="text;strokeColor=none;fillColor=none;align=left;verticalAlign=top;spacingLeft=4;spacingRight=4;overflow=hidden;rotatable=0;points=[[0,0.5],[1,0.5]];portConstraint=eastwest;" vertex="1" parent="-VodoKyR2wJJUR4TgwIR-6"><mxGeometry y="52" width="230" height="26" as="geometry"/></mxCell><mxCell id="-VodoKyR2wJJUR4TgwIR-9" value="+ target_account_id: u_int" style="text;strokeColor=none;fillColor=none;align=left;verticalAlign=top;spacingLeft=4;spacingRight=4;overflow=hidden;rotatable=0;points=[[0,0.5],[1,0.5]];portConstraint=eastwest;" vertex="1" parent="-VodoKyR2wJJUR4TgwIR-6"><mxGeometry y="78" width="230" height="26" as="geometry"/></mxCell><mxCell id="-VodoKyR2wJJUR4TgwIR-10" value="+ value: u_int" style="text;strokeColor=none;fillColor=none;align=left;verticalAlign=top;spacingLeft=4;spacingRight=4;overflow=hidden;rotatable=0;points=[[0,0.5],[1,0.5]];portConstraint=eastwest;" vertex="1" parent="-VodoKyR2wJJUR4TgwIR-6"><mxGeometry y="104" width="230" height="26" as="geometry"/></mxCell><mxCell id="Xvfi8jQ7dY0NSaQ5KawR-0" value="+ dataTime: DataType" style="text;strokeColor=none;fillColor=none;align=left;verticalAlign=top;spacingLeft=4;spacingRight=4;overflow=hidden;rotatable=0;points=[[0,0.5],[1,0.5]];portConstraint=eastwest;" vertex="1" parent="-VodoKyR2wJJUR4TgwIR-6"><mxGeometry y="130" width="230" height="26" as="geometry"/></mxCell><mxCell id="-VodoKyR2wJJUR4TgwIR-11" value="" style="line;strokeWidth=1;fillColor=none;align=left;verticalAlign=middle;spacingTop=-1;spacingLeft=3;spacingRight=3;rotatable=0;labelPosition=right;points=[];portConstraint=eastwest;" vertex="1" parent="-VodoKyR2wJJUR4TgwIR-6"><mxGeometry y="156" width="230" height="8" as="geometry"/></mxCell><mxCell id="Ag_yABURIzYnRmgbXdGw-0" style="edgeStyle=orthogonalEdgeStyle;rounded=0;orthogonalLoop=1;jettySize=auto;html=1;entryX=0.5;entryY=0;entryDx=0;entryDy=0;fontSize=13;fontColor=#000000;strokeWidth=1;" edge="1" parent="2Bdc6YnVovdCHo61PRhK-1" source="NEF8COtfJUBoHxIc8wZ7-9" target="-VodoKyR2wJJUR4TgwIR-6"><mxGeometry relative="1" as="geometry"><Array as="points"><mxPoint x="1160" y="429"/><mxPoint x="1160" y="360"/><mxPoint x="1070" y="360"/><mxPoint x="1070" y="120"/><mxPoint x="935" y="120"/></Array></mxGeometry></mxCell></root></mxGraphModel></diagram></mxfile>